<?xml version="1.0" encoding="UTF-8" standalone="no"?>
<!-- Created with Inkscape (http://www.inkscape.org/) -->

<svg
   version="1.1"
   id="svg184"
   width="1352.3492"
   height="1297.3157"
   viewBox="0 0 1352.3492 1297.3157"
   sodipodi:docname="defeatIcon.svg"
   inkscape:version="1.2.2 (732a01da63, 2022-12-09)"
   xmlns:inkscape="http://www.inkscape.org/namespaces/inkscape"
   xmlns:sodipodi="http://sodipodi.sourceforge.net/DTD/sodipodi-0.dtd"
   xmlns="http://www.w3.org/2000/svg"
   xmlns:svg="http://www.w3.org/2000/svg">
  <defs
     id="defs188" />
  <sodipodi:namedview
     id="namedview186"
     pagecolor="#ffffff"
     bordercolor="#666666"
     borderopacity="1.0"
     inkscape:showpageshadow="2"
     inkscape:pageopacity="0.0"
     inkscape:pagecheckerboard="0"
     inkscape:deskcolor="#d1d1d1"
     showgrid="false"
     inkscape:zoom="0.29799852"
     inkscape:cx="548.66045"
     inkscape:cy="649.33209"
     inkscape:window-width="1920"
     inkscape:window-height="991"
     inkscape:window-x="-9"
     inkscape:window-y="-9"
     inkscape:window-maximized="1"
     inkscape:current-layer="g190" />
  <g
     inkscape:groupmode="layer"
     inkscape:label="Image"
     id="g190"
     transform="translate(-199.82539,-700.34214)">
    <g
       id="g194"
       transform="matrix(1.744595,0,0,1.5805441,-498.8362,-545.30168)">
      <path
         style="fill:#d0d0d1"
         d="m 481.90894,1607.1036 c -7.05477,-2.2571 -12.89775,-6.278 -19.96444,-13.7385 -14.03334,-14.8154 -22.97234,-31.2985 -22.92446,-42.2717 0.0278,-6.3609 3.95097,-21.031 8.18196,-30.595 1.94612,-4.3991 5.0505,-12.4984 6.89864,-17.9984 3.82173,-11.3734 11.34318,-26.5534 19.17886,-38.7074 7.40213,-11.4816 17.9199,-31.7895 23.64685,-45.658 8.55283,-20.7116 13.24641,-30.4488 19.34604,-40.1346 3.29044,-5.225 11.37459,-18.275 17.96478,-29 6.5902,-10.725 18.57032,-29.6149 26.6225,-41.9774 13.20087,-20.2675 15.82354,-23.6596 26.67436,-34.5 24.51373,-24.4904 23.68971,-23.9017 60.96597,-43.5532 20.78599,-10.958 34.24658,-13.5721 65.05638,-12.6342 11.03101,0.3359 22.28101,1.0719 25,1.6356 2.71899,0.5638 9.89362,1.9426 15.94362,3.064 17.52402,3.2482 27.74252,7.1099 43.19732,16.325 17.43856,10.398 27.07525,16.8787 40.30268,27.1036 17.70636,13.6873 37.83036,27.5623 44.50734,30.6868 4.65756,2.1796 7.50231,2.8888 10.67154,2.6608 L 897.5,1297.5 897.26649,1286 c -0.14427,-7.1052 -1.23984,-17.0413 -2.86681,-26 -3.35443,-18.4708 -10.95922,-48.6668 -13.08793,-51.9675 -3.04359,-4.7193 -20.08601,-24.501 -25.96529,-30.1388 -9.04656,-8.6749 -26.94072,-23.6325 -30.43215,-25.438 -5.22522,-2.7021 -21.30273,-8.2597 -32.16914,-11.1202 -9.08115,-2.3905 -12.17665,-2.7085 -27.24517,-2.7981 l -17,-0.1011 -8.5,6.5078 c -11.02466,8.4408 -22.893,17.1792 -32.67215,24.0559 -4.30177,3.025 -14.79785,12.2655 -23.32462,20.5345 -18.21604,17.6652 -24.78989,22.5653 -40.1301,29.9125 -17.42214,8.3444 -25.09427,10.08 -43.87313,9.9253 -25.29324,-0.2084 -33.70553,-2.1731 -71.97077,-16.8083 -22.68978,-8.6782 -25.88656,-10.461 -43.50304,-24.2622 -19.76506,-15.4844 -27.0651,-22.5468 -36.46201,-35.2752 -17.89307,-24.2367 -25.40581,-38.0688 -32.47084,-59.7837 -11.79798,-36.262 -15.57133,-66.1885 -10.24704,-81.2691 3.08714,-8.7441 9.76657,-19.9877 14.17174,-23.85549 10.17022,-8.92958 36.46124,-17.55071 46.48196,-15.24198 5.30734,1.22279 8.91375,3.40937 15.5,9.39774 10.50344,9.54995 23.24007,29.56383 26.55396,41.72593 0.67438,2.475 1.29295,11.025 1.37462,19 0.19446,18.9913 1.0391,23.6286 6.2331,34.2212 3.41901,6.9727 6.1793,10.7579 13.0185,17.8525 19.03117,19.7418 35.44973,27.9263 56.02194,27.9263 24.69381,0 43.52664,-10.0382 57.07979,-30.4243 6.44664,-9.6968 28.88766,-55.4237 31.13265,-63.4373 1.02284,-3.6511 3.71049,-11.4801 5.97257,-17.3978 2.26208,-5.9177 4.11287,-11.2714 4.11287,-11.89714 0,-1.38501 9.59695,-23.82101 15.72987,-36.77367 11.30296,-23.87177 30.42628,-45.31912 54.91415,-61.58781 6.12921,-4.07198 12.91878,-8.32866 15.08792,-9.45928 5.22452,-2.72317 22.33563,-7.01373 28.14628,-7.05759 2.54198,-0.0192 8.22178,-0.72095 12.62178,-1.55947 4.98903,-0.95078 17.06714,-1.74149 32.09094,-2.10088 20.71905,-0.49564 25.19794,-0.3313 32,1.17414 4.34998,0.96274 9.05264,2.33682 10.45035,3.05352 1.39771,0.7167 6.05367,1.79161 10.34658,2.3887 19.05417,2.65019 34.23034,7.94876 60.85985,21.24845 22.0109,10.99301 29.77736,15.84597 45.17538,28.2284 5.5423,4.45688 11.8769,9.4325 14.0769,11.05694 14.3631,10.60545 57.526,53.96179 69.1995,69.50959 4.7342,6.3055 12.4796,15.5305 17.212,20.5 11.9009,12.4972 20.8211,26.8927 29.3472,47.3604 11.2281,26.9539 15.4266,38.2048 17.2312,46.1751 0.934,4.125 2.9602,12.225 4.5027,18 3.7518,14.0469 5.6474,23.0507 8.0001,38 1.082,6.875 3.5251,17.9965 5.4291,24.7144 7.9201,27.9441 8.72,33.2404 9.7095,64.2856 0.9777,30.6777 0.6883,37.4668 -2.2055,51.7311 -1.03,5.0772 -2.3549,15.2022 -2.9443,22.5 -1.3842,17.1399 -6.3961,38.6821 -13.4403,57.7689 -1.3194,3.575 -3.5369,10.325 -4.9278,15 -1.3909,4.675 -4.4363,11.65 -6.7676,15.5 -5.7427,9.4837 -12.1886,24.4531 -14.3036,33.2174 -0.9579,3.9696 -3.3892,10.4946 -5.4028,14.5 -5.2321,10.4074 -24.1882,38.5553 -29.1484,43.2826 -2.3084,2.2 -6.7897,7.375 -9.9584,11.5 -9.9334,12.9313 -19.9931,21.5183 -37.0903,31.6606 -21.1638,12.5546 -21.4984,12.6975 -38.4423,16.413 l -15,3.2892 -32,0.069 c -30.85603,0.066 -32.26812,-0.015 -39.5,-2.2733 -11.09131,-3.4632 -19.0639,-8.0205 -35.12221,-20.0765 -21.6337,-16.2418 -51.76587,-47.9749 -70.31605,-74.0521 -14.31719,-20.1266 -20.0216,-30.2531 -27.05564,-48.0295 -6.63999,-16.7805 -13.26401,-30.5085 -20.51102,-42.5081 -3.88911,-6.4397 -8.23155,-14.0222 -9.64986,-16.8502 -4.26527,-8.5044 -9.3281,-14.3512 -19.78341,-22.8467 -6.80004,-5.5254 -11.37865,-8.4684 -14.5,-9.3203 -2.50899,-0.6848 -5.8286,-1.7467 -7.37691,-2.3599 -3.89958,-1.5443 -14.07587,-1.3961 -18.04619,0.2628 -6.47276,2.7045 -30.43465,30.6513 -72.13871,84.1355 -5.5,7.0535 -13.6,17.4165 -18,23.0287 -4.4,5.6123 -12.05,15.9269 -17,22.9215 -4.95,6.9946 -12.8764,17.9725 -17.61422,24.3954 -11.79963,15.9963 -14.60079,20.5451 -23.29009,37.8211 -5.855,11.6409 -10.04606,18.2541 -18.81437,29.6878 -6.20473,8.0908 -12.48301,16.3805 -13.95175,18.4215 -4.65825,6.4733 -10.36332,11.315 -14.44955,12.263 -6.3262,1.4677 -18.37943,1.0005 -24.47108,-0.9485 z m 55.40992,-537.1093 c -1.19963,-0.4834 -4.04963,-3.2427 -6.33335,-6.1318 -4.94368,-6.2543 -4.94289,-5.6889 -0.0445,-31.8625 4.57678,-24.455 3.99445,-32.00613 -3.78288,-49.05256 -3.34788,-7.33793 -17.97436,-20.2935 -31.15816,-27.59871 -15.37713,-8.52053 -42.78076,-8.4417 -57.5,0.16541 -2.2,1.28645 -7.13793,5.52205 -10.97318,9.41243 -4.36733,4.43012 -7.78054,7.07343 -9.13364,7.07343 -4.35551,0 -13.31791,-12.79786 -13.37122,-19.09345 -0.0121,-1.4264 -0.97913,-5.2514 -2.149,-8.5 -3.36731,-9.35063 -3.18016,-25.37438 0.48362,-41.40655 6.90525,-30.2164 10.40995,-37.49399 31.54313,-65.5 10.01685,-13.27448 14.13717,-17.11562 26.87536,-25.05437 5.89871,-3.67622 11.8842,-7.76464 13.30109,-9.08538 4.72681,-4.40603 25.56874,-11.05162 45.21208,-14.41618 9.5499,-1.63572 26.62083,-0.77063 35.21176,1.78441 3.85,1.14504 11.05,2.81532 16,3.71174 12.88456,2.33333 28.24617,10.01999 39.43979,19.73491 10.61483,9.21258 26.00649,26.10611 33.59136,36.86908 11.85256,16.81884 18.91002,31.92985 23.81095,50.98259 5.81165,22.59324 6.17747,26.5017 4.21402,45.02339 -1.987,18.74401 -3.39286,24.85401 -7.9266,34.44981 -3.10176,6.56497 -16.72206,24.5 -18.6059,24.5 -0.47143,0 -3.30236,3.4875 -6.29098,7.75 -7.43035,10.5975 -16.22287,18.5162 -30.85888,27.7922 -17.04872,10.8051 -27.17505,15.7862 -37.20844,18.3026 -4.7003,1.1789 -13.7923,4.1711 -20.20444,6.6493 -6.41215,2.4783 -11.72649,4.4774 -11.80966,4.4425 -0.0832,-0.035 -1.13273,-0.4589 -2.33236,-0.9423 z"
         id="path208" />
      <path
         style="fill:#afafb0"
         d="m 490,1607.973 c -3.025,-0.4206 -7.46067,-1.4836 -9.85704,-2.3623 -16.92434,-6.2054 -40.09501,-37.2403 -40.13075,-53.7512 -0.0146,-6.7321 4.06162,-23.0979 7.38849,-29.6646 1.30821,-2.5822 4.49393,-10.7699 7.07936,-18.1949 4.76526,-13.6852 11.20692,-26.7931 19.41156,-39.5 6.7094,-10.3912 17.57755,-31.3889 23.29141,-45 10.37509,-24.7147 14.86583,-33.6109 25.03284,-49.5901 5.74259,-9.0254 14.28425,-22.7099 18.98146,-30.4099 10.16231,-16.6588 25.5551,-40.5116 32.39255,-50.1959 2.71485,-3.8451 12.88528,-14.6082 22.74799,-24.0734 15.82755,-15.1897 18.87044,-17.6489 27,-21.8211 5.03917,-2.5862 13.21213,-7.0577 18.16213,-9.9368 23.87758,-13.8879 37.91642,-17.0824 71.27445,-16.2181 22.26987,0.577 39.85089,3.0935 57.65216,8.2521 10.27382,2.9772 14.91127,5.2236 31.57339,15.2944 14.52526,8.7792 21.03821,13.2555 37.5,25.7733 31.18945,23.7169 43.40404,31.2866 51.70629,32.0437 8.36851,0.7632 8.34395,0.8189 6.96164,-15.7887 -1.8183,-21.8457 -11.16082,-65.1263 -16.11531,-74.6564 -2.10758,-4.054 -19.47611,-25.2207 -23.93823,-29.1731 -11.72792,-10.3881 -24.44936,-21.2689 -28.3314,-24.2321 -5.55231,-4.2382 -16.697,-8.6325 -34.28299,-13.5177 -12.3853,-3.4405 -13.7802,-3.6164 -29.5,-3.7191 -9.075,-0.059 -17.37851,0.3115 -18.45224,0.824 -1.07373,0.5124 -6.92373,4.8161 -13,9.5637 -6.07627,4.7476 -16.19259,12.2205 -22.48071,16.6066 -7.40509,5.1651 -17.35563,13.6758 -28.24428,24.1573 -9.8091,9.4423 -20.28612,18.4947 -25.1538,21.7336 C 641.36814,1221.9279 620.3394,1229 603.41099,1229 581.4042,1229 564.18528,1225.6231 542,1216.9565 c -7.425,-2.9006 -18.07591,-6.9569 -23.66869,-9.0141 -5.59279,-2.0572 -13.24279,-5.7369 -17,-8.1772 -10.08465,-6.55 -36.32016,-27.8784 -42.18246,-34.2927 -11.85438,-12.9706 -30.27178,-40.6586 -36.23381,-54.4725 -8.50683,-19.7102 -16.67244,-51.3908 -18.94446,-73.5 -1.43137,-13.9288 0.0888,-22.3024 6.23445,-34.3404 6.40348,-12.54319 9.23878,-15.32064 22.12674,-21.67528 9.48314,-4.67584 12.77127,-5.75831 21.79268,-7.17428 l 10.62446,-1.66759 5.78776,2.83169 c 11.78077,5.76379 27.76423,25.51436 34.53466,42.67396 3.18275,8.0667 3.29892,8.8641 3.40216,23.3519 0.13981,19.6176 0.93597,24.2173 6.06216,35.023 5.77851,12.1807 16.11893,23.718 31.12985,34.7329 6.79223,4.984 14.28492,8.3221 24.45007,10.8926 14.40964,3.6439 32.17737,1.617 46.81144,-5.3402 8.0448,-3.8245 19.55767,-14.5531 25.6817,-23.9322 5.96171,-9.1305 29.94985,-57.7095 30.84015,-62.4552 0.39867,-2.1251 2.29705,-7.9267 4.21862,-12.8924 1.92157,-4.9657 4.40641,-11.9535 5.52187,-15.5285 2.4517,-7.85757 12.42104,-31.1089 18.54344,-43.24852 9.68587,-19.20537 31.18003,-42.65519 51.26721,-55.9318 21.66739,-14.32105 22.47239,-14.55925 67,-19.82492 4.125,-0.48781 16.95974,-0.91119 28.52164,-0.94084 18.51077,-0.0475 21.85516,0.19519 28,2.03166 9.07306,2.71161 15.9194,4.3306 26.97836,6.37968 13.92834,2.58075 29.13466,8.34561 51.5,19.52415 20.88089,10.43659 30.63369,16.52599 44,27.4725 4.125,3.37822 10.2,8.11761 13.5,10.53199 15.4279,11.28753 56.759,52.4444 69.2955,69.0035 4.7875,6.3236 12.635,15.6297 17.4388,20.6803 8.0734,8.4879 18.6063,23.1949 23.5273,32.8509 1.898,3.7241 7.6374,17.4995 17.4041,41.7717 5.8661,14.5785 16.0328,55.7355 19.1937,77.6997 0.7519,5.225 2.9578,14.9 4.902,21.5 8.0539,27.3408 8.7896,32.1874 9.8658,65 1.0618,32.3684 0.8497,37.7201 -2.0999,53 -1.0618,5.5 -2.4327,15.85 -3.0466,23 -1.177,13.7089 -3.0916,23.2468 -7.8798,39.2559 -6.983,23.347 -13.4607,41.4539 -16.7741,46.8886 -5.7171,9.3771 -11.0348,21.6219 -14.3049,32.939 -1.6712,5.7837 -4.1443,12.631 -5.4958,15.2162 -6.7491,12.9096 -23.9675,38.4118 -29.5055,43.7003 -2.3038,2.2 -7.0453,7.642 -10.5367,12.0934 -9.8248,12.5263 -18.533,19.8765 -35.6221,30.0672 -21.1558,12.6157 -22.4502,13.1818 -37.8,16.5322 -12.94116,2.8247 -14.93472,2.9811 -43.5618,3.4167 -34.21314,0.5206 -40.99541,-0.2482 -53.1627,-6.0265 -12.03582,-5.7157 -32.08588,-20.2765 -44.69452,-32.4581 -9.05674,-8.7499 -34.80388,-36.9186 -41.24578,-45.1249 -16.94049,-21.5805 -28.97593,-41.8207 -36.86704,-62 -5.72418,-14.638 -13.43899,-30.2667 -21.71969,-44 -4.14539,-6.875 -8.56045,-14.5159 -9.81125,-16.9798 -3.55002,-6.9931 -7.73373,-11.6323 -17.99902,-19.9584 -8.04073,-6.5217 -10.77675,-8.1167 -17.81175,-10.3836 -8.75257,-2.8202 -17.04933,-3.4342 -21.87315,-1.6187 -1.54831,0.5828 -4.55641,2.7203 -6.68468,4.75 -6.56835,6.2643 -26.79473,29.2157 -34.09683,38.6905 -3.81489,4.95 -9.01483,11.475 -11.55542,14.5 -2.54058,3.025 -7.47273,9.2815 -10.96033,13.9033 -3.4876,4.6218 -10.12392,13.1718 -14.74738,19 -16.5228,20.8281 -21.04716,26.7757 -30.34534,39.8913 -5.18382,7.312 -13.34166,18.633 -18.12855,25.1577 -11.92462,16.2539 -14.44177,20.3519 -22.75632,37.0477 -5.64747,11.3403 -9.76178,17.8265 -18.88063,29.7655 -6.41279,8.3961 -12.8599,16.9461 -14.32691,19 -4.94661,6.9258 -9.13184,10.1614 -15.18194,11.7372 -6.18813,1.6118 -6.39354,1.6184 -14.65077,0.4703 z m 44.60273,-541.0169 c -1.90678,-1.6742 -4.41946,-5.0118 -5.58373,-7.4169 -2.01062,-4.1533 -2.04236,-4.6656 -0.63229,-10.206 3.87157,-15.2121 6.811,-35.8256 6.19819,-43.4663 -1.04625,-13.04503 -6.80962,-26.46101 -14.46915,-33.68139 -18.24725,-17.20103 -33.75452,-24.16326 -53.85379,-24.1785 -7.58718,-0.006 -10.96019,0.54464 -18.87492,3.07996 -9.30498,2.98065 -9.93745,3.37671 -18.36407,11.5 C 423.8047,967.61739 419.46352,971 418.22581,971 414.35362,971 406,959.21718 406,953.75542 c 0,-1.34327 -0.95088,-5.10027 -2.11306,-8.34887 -1.4256,-3.98492 -2.27824,-9.34325 -2.62077,-16.47002 -0.43594,-9.07032 -0.12455,-12.25069 2.20293,-22.5 7.57852,-33.37269 10.86419,-40.36319 32.34882,-68.82451 9.82018,-13.00908 13.32371,-16.275 26.02785,-24.26263 5.85983,-3.68432 12.02424,-7.96878 13.69869,-9.52102 3.85392,-3.57265 19.2382,-8.82541 35.90736,-12.26009 15.80359,-3.25632 32.3942,-3.54553 40.64163,-0.70845 2.9736,1.0229 9.90148,2.62589 15.39529,3.56219 23.39753,3.98761 40.05106,14.63693 62.51126,39.97361 18.22609,20.56032 31.62007,43.83559 36.60175,63.60437 6.74122,26.75114 7.18183,31.3024 4.96321,51.26782 -2.75808,24.82015 -7.33352,35.72453 -21.40569,51.01498 -4.7626,5.175 -10.81658,12.3931 -13.45329,16.0403 -6.4573,8.932 -14.83594,16.1659 -29.20598,25.2157 -16.21152,10.2094 -26.01079,14.8782 -38.5,18.3431 -5.775,1.6022 -14.72374,4.5342 -19.88608,6.5156 -5.16234,1.9814 -9.75918,3.6025 -10.2152,3.6025 -0.45602,0 -2.38922,-1.3698 -4.29599,-3.0439 z"
         id="path206" />
      <path
         style="fill:#8f8f90"
         d="m 485,1606.6901 c -7.63324,-2.2099 -12.09014,-4.8438 -18.84365,-11.1361 -12.63802,-11.7749 -22.85129,-27.8287 -25.38289,-39.8981 -1.0618,-5.0622 -0.93229,-6.7027 1.21667,-15.4106 1.32273,-5.3599 4.07264,-13.5703 6.11091,-18.2453 2.03827,-4.675 5.13125,-12.775 6.87327,-18 3.89406,-11.6797 10.18268,-24.6872 17.6599,-36.5278 8.57653,-13.5815 19.75243,-34.921 25.21346,-48.1433 8.34671,-20.209 14.00096,-32.1246 19.04094,-40.1261 2.6685,-4.2365 10.04913,-16.0278 16.40141,-26.2028 37.91719,-60.7353 41.38519,-65.73 55.441,-79.8474 19.16813,-19.2521 26.23059,-24.9473 40.16029,-32.3849 34.03302,-18.1717 40.47049,-20.6068 60.22268,-22.7802 28.16802,-3.0996 76.67818,3.8129 96.28146,13.7196 11.78452,5.9555 34.58458,20.829 52.60455,34.3164 37.79413,28.2877 45.52919,32.9495 54.70031,32.9667 3.50808,0.01 5.46403,-0.4614 6.01073,-1.4383 1.34421,-2.402 -0.36165,-23.2529 -3.13624,-38.3346 -3.74498,-20.3564 -10.35076,-45.9788 -13.20448,-51.2173 -2.47532,-4.5439 -13.10302,-17.8111 -20.7304,-25.879 -6.51799,-6.8945 -32.75135,-29.1372 -36.80222,-31.2038 -5.8605,-2.9898 -16.49252,-6.7792 -28.3377,-10.1 -10.03767,-2.814 -12.60563,-3.12 -29.3533,-3.4978 -21.20138,-0.4783 -17.23717,-1.8919 -36.75528,13.1071 -7.20972,5.5404 -17.10972,12.8634 -22,16.2734 -4.89028,3.4099 -15.19142,12.3643 -22.89142,19.8986 -16.5932,16.2361 -26.56528,23.9117 -39.47989,30.3881 -19.84425,9.9515 -33.74603,12.743 -54.82641,11.0092 -22.3185,-1.8356 -26.77185,-3.0138 -62.1937,-16.454 -9.625,-3.6521 -19.75,-7.8 -22.5,-9.2175 -9.3798,-4.835 -37.45232,-27.2424 -47.24505,-37.7109 -10.45613,-11.1776 -28.05496,-37.0904 -34.71402,-51.1134 -7.04763,-14.8413 -15.97764,-46.7043 -19.05788,-68 -2.91922,-20.1825 -1.40251,-30.4345 6.68419,-45.1812 4.82526,-8.79915 9.45315,-13.10004 19.56895,-18.18616 10.03519,-5.04559 16.33579,-6.87187 26.57364,-7.70256 7.24262,-0.58767 8.80911,-0.41005 12.3599,1.40143 12.61868,6.43757 28.80466,27.59159 34.80449,45.48719 2.36302,7.0481 2.59557,9.0683 2.35979,20.5 -0.36525,17.7088 0.56461,22.9201 6.18834,34.6813 3.76807,7.8804 6.42457,11.7639 12.53294,18.3218 19.0999,20.5054 37.008,29.516 58.44471,29.4067 20.15085,-0.1026 34.65749,-5.684 47.11023,-18.1253 4.18563,-4.1817 9.30614,-10.2598 11.37892,-13.5067 7.21464,-11.3014 27.71572,-53.886 31.57952,-65.5965 12.00026,-36.37075 23.70609,-64.10166 33.29037,-78.86428 9.34076,-14.38753 25.47595,-31.16552 39.65934,-41.2393 20.62089,-14.64603 31.08942,-18.93573 50.98162,-20.89078 5.225,-0.51353 12.65,-1.41486 16.5,-2.00296 3.85,-0.58809 18.025,-1.15099 31.5,-1.25087 l 24.5,-0.18161 9.38242,3.2149 c 5.16034,1.7682 10.46681,3.2149 11.79216,3.2149 4.81699,0 18.09507,3.20873 29.81914,7.20597 6.69327,2.28202 21.57967,8.89919 33.68454,14.97313 22.09128,11.0849 24.85706,12.90981 53.94684,35.59481 20.7563,16.18634 59.7823,54.84809 72.3802,71.70469 4.8753,6.5234 12.9596,16.1939 17.965,21.49 11.7474,12.4295 20.2493,26.1979 28.1044,45.5137 3.359,8.2597 6.8041,16.3677 7.6558,18.0177 5.5796,10.8088 18.4368,58.7893 21.7054,81 1.0522,7.15 3.7644,19.525 6.027,27.5 8.2932,29.2311 8.908,34.1209 9.2411,73.5 0.2757,32.6011 0.1468,35.7539 -1.8804,46 -1.1969,6.05 -2.4565,15.275 -2.7989,20.5 -0.9657,14.7349 -6.2168,37.0515 -13.5297,57.5 -1.5735,4.4 -3.8365,11.2281 -5.0288,15.1737 -1.1924,3.9455 -4.3206,10.8312 -6.9517,15.3016 -5.5388,9.4109 -10.5429,21.3458 -14.8949,35.5247 -2.1772,7.0934 -4.8932,12.9562 -9.3444,20.1708 -10.4242,16.8957 -19.3092,29.6318 -23.2509,33.3292 -2.0522,1.925 -6.5649,7.1 -10.0282,11.5 -10.5013,13.3417 -19.5703,21.2553 -35.4961,30.9737 -19.9868,12.1966 -24.2699,14.0198 -41,17.4528 -13.96932,2.8666 -15.61627,2.9851 -45,3.2387 -29.12056,0.2514 -30.85978,0.1608 -38.45493,-2.0041 -11.27641,-3.2142 -20.00237,-8.0893 -36.04507,-20.1383 -14.93086,-11.214 -24.58234,-20.411 -44.39103,-42.301 C 819.41215,1499.325 802.8984,1474.293 792.51601,1448 c -5.72586,-14.5006 -13.64293,-30.7558 -20.79937,-42.7052 -3.55575,-5.9371 -8.3027,-14.1698 -10.54878,-18.2948 -4.29702,-7.8916 -9.93914,-13.9954 -21.90141,-23.6936 -6.11794,-4.96 -8.67728,-6.2982 -16.59472,-8.6768 -17.44266,-5.2402 -21.92847,-3.2337 -41.33935,18.4908 -8.83588,9.8891 -16.55239,19.4295 -49.58277,61.3023 -21.07007,26.7106 -38.01728,49.2634 -48.15064,64.0773 -3.76224,5.5 -7.85692,11.125 -9.09928,12.5 -5.06784,5.6089 -14.89039,21.6392 -21.91701,35.7683 -6.9519,13.9789 -17.57426,29.6876 -30.00307,44.3696 -1.69379,2.0008 -4.42683,5.5195 -6.07344,7.8191 -4.69838,6.5619 -8.25484,8.2435 -18.33458,8.6695 -5.26239,0.2224 -10.44075,-0.1458 -13.17159,-0.9364 z m 49.03489,-540.813 c -1.5688,-1.7177 -3.66398,-4.6301 -4.65594,-6.472 -1.60856,-2.9869 -1.66816,-3.9738 -0.55116,-9.1271 6.56132,-30.2708 7.7912,-46.2592 4.33186,-56.31397 -4.72773,-13.74138 -9.91859,-20.69403 -23.03982,-30.85961 -13.99274,-10.84077 -23.42038,-14.35885 -41.68272,-15.55462 -7.88222,-0.5161 -10.22523,-0.25658 -17.98513,1.99215 -11.11446,3.22085 -14.01478,4.9735 -23.69904,14.32128 -7.15872,6.90998 -7.92038,7.38512 -10.0292,6.25651 -3.67519,-1.9669 -8.83184,-10.46552 -10.19426,-16.80103 -0.68821,-3.20029 -2.07703,-8.51871 -3.08628,-11.81871 -3.69374,-12.07766 -1.99495,-28.07889 6.12947,-57.73466 3.47427,-12.68179 13.29155,-29.05711 30.22603,-50.41727 7.18156,-9.05841 9.32242,-10.99331 19.87491,-17.96295 6.50451,-4.29606 13.62639,-9.23598 15.82639,-10.97761 5.24728,-4.15399 21.23976,-9.45984 38.98305,-12.93347 11.6834,-2.28727 15.63045,-2.64746 24,-2.19012 5.50932,0.30105 12.04195,1.28751 14.51695,2.19214 2.475,0.90463 9.06726,2.47525 14.64947,3.49028 12.00754,2.18336 24.50015,7.04836 33.41476,13.0127 8.62491,5.77052 30.89575,28.25104 39.64768,40.02096 12.97752,17.45265 20.8164,33.12805 25.50384,51 6.13614,23.39548 6.90436,31.81694 4.72432,51.78941 -2.37117,21.7235 -7.21374,33.53535 -19.35518,47.21059 -4.15066,4.675 -9.95807,11.65 -12.90537,15.5 -8.13084,10.6212 -17.8839,19.1856 -31.68516,27.8237 -15.76504,9.8671 -26.19933,14.8534 -36.99436,17.6786 -4.675,1.2235 -13,3.971 -18.5,6.1056 -5.5,2.1345 -11.03787,3.8835 -12.30637,3.8865 -1.3123,0 -3.53577,-1.3404 -5.15874,-3.1173 z"
         id="path204" />
      <path
         style="fill:#6e6e6f"
         d="m 489.73659,1606.9996 c -12.63121,-1.6179 -25.50627,-11.1037 -36.64647,-26.9996 -7.6139,-10.8642 -11.36842,-19.2872 -11.88207,-26.6564 -0.5075,-7.2808 3.26899,-23.4047 7.38354,-31.5243 1.4293,-2.8206 4.61193,-11.0213 7.07251,-18.2238 4.64655,-13.6012 9.35117,-23.1032 19.85195,-40.0955 9.19307,-14.8761 16.51366,-29.2154 24.01848,-47.0463 8.44878,-20.0737 14.03294,-31.3973 20.05598,-40.6695 6.45851,-9.9425 20.17814,-31.8673 24.89539,-39.7842 4.06655,-6.8249 11.73142,-18.7778 24.3676,-38 5.34172,-8.1258 11.24012,-15.2641 20.10316,-24.3291 17.97841,-18.388 26.59028,-25.327 40.54334,-32.6679 6.6,-3.4724 16.05,-8.4543 21,-11.0709 19.02806,-10.0585 31.76367,-12.4498 61.96918,-11.6356 27.93535,0.753 53.42591,5.2598 69.19582,12.2341 12.33861,5.4567 35.94666,20.6001 56.835,36.4569 19.33551,14.6779 35.98621,26.2568 42.38731,29.476 6.55912,3.2987 14.75992,4.3507 17.547,2.251 1.85507,-1.3975 1.88575,-2.0462 0.74912,-15.8359 -1.76116,-21.3663 -11.20171,-65.1136 -16.14041,-74.7943 -4.4055,-8.6355 -21.89485,-27.9023 -37.74832,-41.5848 -16.9718,-14.6477 -20.03246,-16.5936 -33.65215,-21.396 -19.77732,-6.9735 -27.62667,-8.4258 -46.03901,-8.5185 -19.52687,-0.098 -16.92484,-1.0356 -33.77081,12.1662 -6.233,4.8847 -15.83273,11.9856 -21.33273,15.7797 -5.98379,4.1279 -16.06741,12.7839 -25.10728,21.5526 -18.09546,17.5526 -26.52981,24.0297 -40.12037,30.8098 -19.73919,9.8477 -35.89602,12.6241 -59.37119,10.2023 -16.28491,-1.68 -25.36596,-4.0794 -47.16422,-12.4617 -10.58032,-4.0686 -20.36194,-7.7347 -21.73694,-8.1468 -5.7704,-1.7296 -16.11298,-7.7362 -25,-14.5192 -17.83235,-13.6105 -30.72287,-24.9037 -36.17105,-31.6888 -13.85107,-17.2501 -27.72622,-38.9048 -32.77886,-51.1576 -8.14679,-19.7562 -15.91002,-50.51 -18.07951,-71.6215 -1.41829,-13.8016 0.0575,-21.9004 6.24937,-34.2962 5.86443,-11.74024 9.33386,-15.10121 21.81342,-21.13147 8.54194,-4.12757 12.36702,-5.35384 20.80116,-6.66854 9.69267,-1.51089 10.61749,-1.50288 14.89057,0.12903 8.45992,3.23087 22.5914,18.47888 31.01656,33.46718 6.29644,11.2013 7.62134,16.9599 7.70741,33.5 0.0978,18.8021 0.81576,22.8282 6.06272,34 5.16446,10.9961 13.38096,20.9205 25.30212,30.5614 16.35319,13.2251 31.76149,18.6406 50.18609,17.6387 24.06673,-1.3088 41.4738,-11.4576 54.68784,-31.8844 7.29695,-11.2799 28.85196,-55.5481 31.30619,-64.2944 1.19561,-4.2609 3.07371,-9.8338 4.17357,-12.3842 1.09985,-2.5504 3.4979,-9.1371 5.32901,-14.6371 5.44261,-16.34773 17.05126,-41.68093 24.28665,-53 5.88768,-9.21071 19.6768,-24.99365 28.44856,-32.56203 7.47423,-6.44886 20.57309,-15.56253 30.03204,-20.8951 9.39499,-5.29651 16.25842,-6.73439 52.73614,-11.04811 4.125,-0.48781 16.95974,-0.91119 28.52164,-0.94084 18.50153,-0.0475 21.85822,0.19584 28,2.02947 9.77266,2.91762 16.60834,4.55024 26.66412,6.36839 4.77717,0.86374 12.87717,2.9508 18,4.63791 11.38366,3.74899 51.0675,23.12616 60.4675,29.52559 13.22981,9.00675 32.74964,25.05754 51.70434,42.51553 25.1984,23.20859 39.704,38.20489 48.4265,50.06449 3.9219,5.3324 11.4442,14.3324 16.7162,20 12.718,13.6723 21.6511,28.0368 30.0539,48.3273 13.3268,32.1807 14.6515,35.9616 19.892,56.7777 6.2522,24.8346 7.2164,29.348 9.549,44.6997 0.961,6.325 3.3344,16.9 5.2742,23.5 8.0555,27.408 8.7819,32.1981 9.8578,65 1.0597,32.3059 0.8498,37.659 -2.078,53 -1.0497,5.5 -2.4216,15.85 -3.0486,23 -1.6046,18.2972 -3.9038,27.6362 -15.6177,63.438 -3.1959,9.7679 -6.9866,19.1451 -9.3419,23.1097 -5.8832,9.9028 -10.8319,21.3035 -13.6478,31.441 -2.9535,10.633 -8.5638,22.2951 -15.3997,32.0113 -2.7087,3.85 -6.7344,9.9411 -8.946,13.5359 -2.2116,3.5947 -7.5145,10.3907 -11.7843,15.1023 -4.2697,4.7115 -10.6173,11.9725 -14.1057,16.1356 -8.2516,9.8474 -13.1063,13.8428 -27.6575,22.7616 -21.3083,13.0605 -25.2994,14.8558 -40.3035,18.13 -13.14264,2.868 -14.93496,3.0076 -44.32285,3.4509 -35.70953,0.5386 -40.17457,-0.043 -54.3546,-7.082 -28.92356,-14.3574 -72.74383,-57.9908 -100.51204,-100.0833 -8.67985,-13.1574 -13.29611,-22.1498 -20.41533,-39.7687 -6.43436,-15.9239 -11.71012,-26.6303 -20.04692,-40.6823 -3.4262,-5.775 -7.84052,-13.425 -9.80958,-17 -4.83742,-8.7827 -9.22379,-13.6693 -20.18082,-22.4821 -7.62605,-6.1336 -10.65616,-7.8945 -17.15801,-9.9708 -8.8621,-2.83 -17.73479,-3.2869 -22.67847,-1.1678 -5.6775,2.4337 -28.76338,27.3284 -44.16063,47.6207 -2.71261,3.575 -7.0202,8.975 -9.57243,12 -2.55223,3.025 -6.6304,8.1917 -9.06262,11.4816 -2.43221,3.2898 -8.2472,10.791 -12.9222,16.6692 -20.14992,25.3358 -32.50765,42.0244 -58.64136,79.1925 -3.92775,5.5862 -10.77415,17.3567 -15.21422,26.1567 -7.55702,14.9776 -19.63153,32.8524 -29.04684,43 -1.53092,1.65 -3.72264,4.575 -4.87049,6.5 -3.47823,5.8332 -7.45535,8.9084 -13.58613,10.5053 -6.15951,1.6043 -6.22151,1.6064 -14.90437,0.4943 z m 44.48646,-541.7246 c -5.57145,-5.9074 -6.55449,-9.1899 -4.80533,-16.0456 0.80399,-3.1512 2.66334,-12.6913 4.13189,-21.2004 3.82397,-22.1568 2.86721,-30.35537 -5.46976,-46.87081 -3.87108,-7.66858 -17.38507,-19.55144 -31.25202,-27.47994 -6.75896,-3.86447 -19.58069,-6.66291 -30.56587,-6.67124 -7.58718,-0.006 -10.96019,0.54464 -18.87492,3.07996 -9.30498,2.98065 -9.93745,3.37671 -18.36407,11.5 C 423.82164,966.60106 419.46197,970 418.23192,970 414.76897,970 407,958.7298 407,953.70621 c 0,-1.31621 -0.95088,-5.05106 -2.11306,-8.29966 -1.4256,-3.98492 -2.27824,-9.34325 -2.62077,-16.47002 -0.43594,-9.07032 -0.12455,-12.25069 2.20293,-22.5 7.618,-33.54655 11.32047,-41.37035 32.62293,-68.93653 9.85369,-12.75104 11.97158,-14.70422 25.90797,-23.89305 6.325,-4.17033 12.85,-8.65507 14.5,-9.9661 4.02682,-3.19956 19.24231,-8.14908 34.35853,-11.17665 16.26142,-3.25694 31.54556,-3.47516 40.41543,-0.57702 3.42432,1.11886 10.50104,2.75875 15.72604,3.6442 10.58828,1.79433 21.35724,5.74902 30.45357,11.18348 8.43191,5.03752 36.20745,33.14162 44.723,45.25204 9.78633,13.91767 19.22228,33.28334 22.4297,46.0331 6.74029,26.7932 7.17684,31.30664 4.95869,51.26782 -2.91608,26.242 -7.03835,35.53098 -23.62339,53.23218 -3.09192,3.3 -7.10729,8.1986 -8.92304,10.8857 -5.76291,8.5286 -15.1521,17.1071 -27.49339,25.1194 -16.742,10.8695 -29.28789,17.033 -41.52514,20.4005 -5.775,1.5891 -14.72374,4.5105 -19.88608,6.4919 -5.16234,1.9814 -9.83421,3.6025 -10.38192,3.6025 -0.54772,0 -2.57674,-1.6762 -4.50895,-3.725 z"
         id="path202" />
      <path
         style="fill:#4e4e50"
         d="m 485,1605.569 c -6.89231,-1.9178 -12.19419,-4.9798 -18.32615,-10.5841 -11.27281,-10.3027 -22.55295,-28.1375 -24.9131,-39.3896 -1.01654,-4.8464 -0.87286,-6.6799 1.19907,-15.3008 1.2947,-5.387 4.03997,-13.6195 6.10059,-18.2945 2.06062,-4.675 5.16518,-12.775 6.89902,-18 3.7604,-11.3321 11.58994,-27.1517 19.50379,-39.4075 6.74519,-10.4459 19.83958,-35.8719 23.99515,-46.5925 6.10046,-15.738 15.57459,-34.1206 26.02698,-50.5 5.96663,-9.35 13.96716,-22.175 17.77894,-28.5 8.94721,-14.8464 24.82941,-39.5454 31.22599,-48.5607 2.75895,-3.8884 12.99081,-14.7265 22.7739,-24.1231 16.9714,-16.301 18.33257,-17.3674 30.5,-23.8943 34.52526,-18.5202 41.1767,-21.0839 60.79347,-23.4316 24.92816,-2.9834 69.67141,2.56 91.35456,11.3182 6.28151,2.5373 29.94418,16.4539 40.08779,23.5767 3.575,2.5104 11.9,8.6708 18.5,13.6899 20.19676,15.3589 36.30214,26.4374 42.96851,29.557 5.20629,2.4363 7.40747,2.9184 12.19239,2.6705 L 899.5,1299.5 899.34191,1286 c -0.12432,-10.6156 -0.83096,-16.9186 -3.30732,-29.5 -4.19453,-21.3108 -9.78587,-43.0262 -12.40754,-48.1878 -1.16988,-2.3034 -6.61254,-9.6778 -12.0948,-16.3878 -7.59533,-9.2961 -13.85857,-15.5023 -26.31505,-26.075 -20.17042,-17.1201 -23.78053,-19.057 -48.59283,-26.0718 -10.36072,-2.9291 -12.42866,-3.1696 -30.12437,-3.5032 l -19,-0.3582 -14.6172,11.2919 c -8.03946,6.2105 -18.82405,14.2169 -23.96574,17.7919 -5.1417,3.575 -16.11396,13.059 -24.3828,21.0756 -17.99911,17.45 -27.74341,24.8392 -41.06457,31.1399 -16.57386,7.8391 -25.65979,10.0717 -40.96969,10.0672 -24.12048,-0.01 -36.23338,-2.5395 -65.5,-13.6936 -25.43532,-9.694 -29.47518,-11.4503 -35.92267,-15.6175 -6.98383,-4.5139 -30.64795,-23.3838 -37.43008,-29.847 -9.94885,-9.4811 -28.81686,-36.3366 -36.97267,-52.6246 -7.73471,-15.447 -16.61906,-46.1244 -20.19813,-69.7434 -3.01044,-19.8665 -1.37189,-30.9148 6.70792,-45.2299 5.36511,-9.50538 7.74371,-11.77337 17.74398,-16.91889 10.69624,-5.50362 16.79575,-7.31881 27.51599,-8.18865 7.86227,-0.63794 8.71795,-0.51386 12.74196,1.84768 13.15009,7.71727 27.44166,26.68916 33.38648,44.32006 2.44576,7.2535 2.61451,8.7564 2.02467,18.0309 -1.50139,23.6073 4.63234,40.4721 20.79737,57.1827 19.77014,20.4374 35.96963,28.4307 57.4928,28.3686 20.46788,-0.059 35.48159,-5.8413 48.00243,-18.487 4.06452,-4.1051 9.2212,-10.3254 11.45929,-13.823 7.34706,-11.4814 27.74549,-53.8606 31.70009,-65.8591 8.73257,-26.4952 14.91651,-42.25703 24.96905,-63.64187 11.95436,-25.4306 37.89975,-51.83875 66.98315,-68.17787 6.13524,-3.4468 24.06193,-8.17688 30.99837,-8.17914 2.475,-8e-4 8.1,-0.69625 12.5,-1.54543 5.71698,-1.10336 15.41981,-1.60196 34,-1.74715 l 26,-0.20317 9.38242,3.24731 c 5.16034,1.78603 10.45569,3.24732 11.76745,3.24732 4.68443,0 21.87781,4.24857 32.29512,7.98029 5.82781,2.08766 20.18894,8.68364 31.91362,14.65773 21.49461,10.95217 23.74364,12.44222 53.30259,35.31438 19.5166,15.10153 57.5284,52.7697 70.4194,69.7826 4.6821,6.1793 12.8794,15.9292 18.2162,21.6664 15.9521,17.149 23.8719,31.7645 40.3205,74.4091 5.0954,13.2105 15.1899,53.2678 17.8894,70.9897 1.1477,7.5349 3.3877,18.1998 4.9777,23.6998 9.5407,33.0022 10.1975,37.9238 10.3683,77.6941 0.1355,31.5494 -0.028,35.1898 -2.0291,45.3059 -1.1969,6.05 -2.4562,15.2367 -2.7983,20.4149 -1.0097,15.2821 -6.0053,36.5436 -13.5303,57.5851 -1.5735,4.4 -3.8365,11.2281 -5.0288,15.1737 -1.1924,3.9455 -4.3206,10.8312 -6.9517,15.3016 -5.5391,9.4114 -10.7163,21.727 -14.5133,34.5247 -1.4686,4.95 -4.223,11.8013 -6.1208,15.2252 -6.5126,11.7495 -22.6204,34.7789 -29.2485,41.8167 -3.6475,3.8731 -8.6472,9.6552 -11.1104,12.8491 -7.5772,9.8253 -16.0609,16.8532 -32.095,26.588 -20.3502,12.3553 -23.3939,13.6457 -40.1921,17.0404 -13.75601,2.7799 -15.49397,2.8984 -45.2698,3.0861 -33.9113,0.2137 -36.29936,-0.081 -49.14224,-6.0576 -12.938,-6.0213 -35.0594,-23.0031 -50.42552,-38.7097 -37.41689,-38.2462 -57.57897,-66.3702 -70.28467,-98.0397 -7.17363,-17.8806 -12.50184,-28.949 -20.12133,-41.7985 -3.91366,-6.6 -8.79025,-15.0805 -10.83687,-18.8455 -5.37005,-9.8789 -7.94003,-12.8185 -19.53183,-22.3408 -9.52585,-7.8252 -11.1623,-8.7703 -19.93279,-11.5118 -7.97331,-2.4923 -10.47628,-2.8716 -15.1211,-2.2912 -7.59381,0.9488 -9.27892,2.0198 -19.14425,12.1677 -14.25791,14.6662 -25.46938,28.1666 -50.424,60.7184 -3.85,5.0221 -10.6,13.6652 -15,19.2068 -18.37386,23.1413 -28.94382,37.2264 -39.31993,52.3964 -3.57385,5.225 -8.6187,12.2 -11.21079,15.5 -7.59798,9.673 -13.67018,19.6625 -21.51212,35.3899 -5.88363,11.7999 -9.70869,17.7998 -19.15445,30.0451 -6.49149,8.4155 -12.76659,16.7103 -13.94467,18.4329 -3.70875,5.4231 -8.97288,9.7549 -12.98587,10.686 -5.35486,1.2424 -14.9887,1.0131 -20.37217,-0.4849 z m 48.54096,-541.7922 c -4.7254,-5.5205 -5.15439,-7.6742 -3.2229,-16.1797 3.32179,-14.628 5.68194,-30.7731 5.68194,-38.8687 0,-19.26431 -8.67603,-34.38854 -27.55285,-48.03061 -13.93177,-10.06834 -20.02364,-12.28394 -37.67588,-13.70265 -11.06043,-0.88892 -12.21961,-0.80038 -20.3437,1.55389 -11.67399,3.38299 -13.36583,4.38661 -23.02228,13.65719 l -8.37705,8.0423 -2.57682,-1.68839 c -3.61874,-2.37109 -8.17874,-9.94249 -8.96658,-14.88808 -0.36554,-2.29463 -1.62451,-7.32205 -2.79772,-11.17205 -4.10194,-13.46098 -3.00086,-25.0137 5.48028,-57.5 3.2519,-12.45613 10.30935,-24.74036 26.65052,-46.38798 9.82018,-13.00908 13.32371,-16.275 26.02785,-24.26263 5.85983,-3.68432 12.00423,-7.93351 13.65423,-9.44265 4.00661,-3.66457 20.50575,-9.07162 38.05787,-12.47221 11.56921,-2.24145 15.61353,-2.60483 23.93202,-2.15026 5.50556,0.30086 12.03511,1.29142 14.51011,2.20126 2.475,0.90984 8.325,2.31645 13,3.1258 24.02019,4.15843 39.66818,13.89059 61.89561,38.49552 18.73789,20.74214 31.61081,43.00482 37.23397,64.39315 6.21182,23.62733 7.00177,32.21398 4.81049,52.28941 -2.42467,22.21364 -7.27963,33.88998 -19.63354,47.21934 -4.32843,4.67015 -10.25878,11.75115 -13.17857,15.73545 -7.32067,9.9898 -16.09663,17.7301 -29.89688,26.369 -16.02518,10.0317 -26.83826,15.3378 -35.46316,17.4021 -3.99736,0.9568 -12.49253,3.7072 -18.87816,6.1121 -6.38564,2.4049 -12.53807,4.3726 -13.67208,4.3726 -1.18632,0 -3.59681,-1.7933 -5.67672,-4.2232 z"
         id="path200" />
      <path
         style="fill:#2b2c2e"
         d="m 490.10058,1605.9519 c -3.51968,-0.4749 -8.8286,-2.0519 -11.79759,-3.5045 -15.20772,-7.4404 -34.86773,-34.1536 -36.10355,-49.0559 -0.53731,-6.4793 2.84113,-21.0303 7.05628,-30.3915 1.60975,-3.575 4.74572,-11.675 6.96882,-18 4.96213,-14.1179 10.65114,-25.6205 20.28773,-41.0196 8.58217,-13.7142 17.34106,-30.8469 23.86674,-46.6843 8.30151,-20.1471 14.24068,-31.8456 23.31875,-45.9314 10.8614,-16.8529 21.54627,-33.9785 23.31225,-37.3647 1.44332,-2.7675 4.67191,-7.8154 20.28246,-31.7112 8.80435,-13.4773 12.58579,-18.1994 22.42245,-28 17.25997,-17.1968 27.83124,-26.1931 34.17896,-29.0868 3.08337,-1.4056 9.88112,-5.0255 15.10612,-8.0443 27.04418,-15.6248 40.63321,-18.8988 74.19836,-17.8765 22.56227,0.6871 43.12967,3.8802 59.80164,9.2841 14.88923,4.8261 38.32571,18.9871 64.5,38.9727 32.34514,24.6974 46.89018,33.462 55.53066,33.462 8.36486,0 8.56522,-0.489 7.22785,-17.6392 -1.70989,-21.9272 -11.75697,-68.2461 -16.60465,-76.5505 -5.97613,-10.2375 -21.57297,-27.3551 -36.58684,-40.154 -19.27902,-16.435 -21.32026,-17.7986 -33.03716,-22.0701 -19.92591,-7.2641 -28.68658,-8.9303 -48.02986,-9.1349 -10.21117,-0.108 -18.31244,0.2354 -19.45062,0.8244 -1.07284,0.5552 -7.14784,5.1189 -13.5,10.1416 -6.35216,5.0227 -16.6992,12.7211 -22.99343,17.1075 -7.44809,5.1905 -17.23657,13.562 -28.03331,23.9752 -9.12409,8.8 -19.72427,18.0823 -23.55595,20.6274 C 640.16738,1220.282 620.38598,1227 602.89521,1227 c -21.55725,0 -37.98795,-3.4028 -63.39521,-13.1291 -9.9,-3.7898 -21.01653,-8.0427 -24.7034,-9.4508 -8.52117,-3.2545 -15.09675,-7.5344 -31.2966,-20.37 -16.82595,-13.3317 -23.05874,-19.3991 -32.08776,-31.236 -13.82261,-18.1213 -24.68252,-36.2711 -29.36421,-49.0754 -10.12729,-27.6979 -18.26796,-67.2549 -16.46697,-80.016 1.58294,-11.2162 9.23249,-27.51465 15.62377,-33.28879 6.68834,-6.04251 20.74757,-12.13106 32.14876,-13.92247 6.7353,-1.05828 10.90341,-1.25837 13.17094,-0.63228 12.54798,3.46467 31.30853,26.70144 37.96899,47.02844 1.3246,4.0425 1.83788,9.3436 2.03331,21 0.14377,8.5758 0.67894,17.8424 1.18925,20.5924 1.08088,5.8247 6.81912,17.7548 11.72602,24.3791 4.15283,5.6062 15.08516,16.3281 22.51151,22.0782 21.80666,16.8845 50.62981,19.7544 75.66875,7.5344 7.76935,-3.7917 10.31391,-5.7108 17.15612,-12.9391 4.96126,-5.2413 9.94187,-11.8461 13.02298,-17.2699 8.89227,-15.6534 26.022,-51.5942 28.01642,-58.7827 1.06816,-3.85 3.54035,-11.0741 5.49375,-16.0535 1.9534,-4.9794 3.86571,-10.3794 4.24959,-12 1.01228,-4.27342 11.58356,-28.78625 17.32512,-40.17374 7.03331,-13.94948 13.51977,-22.63106 27.41902,-36.69807 9.91799,-10.0377 14.80768,-14.05051 26.19108,-21.4942 14.42305,-9.43133 20.71869,-12.12272 32.81547,-14.02863 C 814.24869,885.12292 822.21174,884.5 847.5,884.5 c 25.91579,0 26.02285,0.009 33.05389,2.7258 3.87964,1.49919 10.36224,3.195 14.40577,3.76848 18.88657,2.6786 32.99934,7.72438 60.86837,21.76245 17.10138,8.61424 23.74019,12.58209 33.5,20.0221 6.69458,5.10336 15.69117,11.96045 19.99237,15.23797 18.5473,14.13308 58.4206,53.7375 71.4652,70.9832 4.7842,6.325 12.547,15.55 17.2507,20.5 12.3861,13.0349 21.1623,26.6436 27.4078,42.5 2.0581,5.225 5.8841,14.45 8.5023,20.5 2.6182,6.05 5.9245,14.6 7.3474,19 4.4143,13.6511 13.577,52.4247 15.2421,64.5 0.8722,6.325 2.4487,14.2 3.5033,17.5 3.1708,9.9217 9.7575,37.4853 10.8729,45.5 0.5741,4.125 1.1662,21.225 1.3159,38 0.2515,28.1975 0.1058,31.2927 -1.9296,41 -1.2108,5.775 -2.6989,16.35 -3.3067,23.5 -1.4249,16.7607 -6.4195,38.3515 -12.9545,56 -1.0183,2.75 -3.2608,9.4957 -4.9834,14.9905 -1.7226,5.4947 -4.9154,12.8349 -7.0952,16.3115 -4.926,7.8565 -12.3178,24.8777 -13.9827,32.198 -2.3718,10.429 -8.9598,23.4915 -17.9042,35.5 -2.0483,2.75 -5.0336,7.25 -6.634,10 -1.6005,2.75 -6.0954,8.375 -9.9887,12.5 -3.8933,4.125 -9.13,10.2042 -11.6371,13.5092 -8.2391,10.8618 -17.3278,18.3684 -35.5156,29.3335 -19.3986,11.6951 -19.9717,11.9339 -37.7963,15.7512 -12.68286,2.7162 -13.79286,2.785 -45.5,2.8178 l -32.5,0.034 -8.08235,-2.7133 c -9.61819,-3.2288 -21.29509,-10.3678 -36.60683,-22.3805 -13.00275,-10.2013 -17.39438,-14.4309 -36.16506,-34.8308 -28.71896,-31.2117 -45.15505,-56.0878 -57.49629,-87.0208 -6.25815,-15.6859 -11.34029,-26.0695 -18.84346,-38.5 -3.81783,-6.325 -8.61385,-14.6856 -10.65783,-18.5791 -3.93146,-7.4889 -11.05509,-15.1839 -22.98311,-24.8264 -10.20209,-8.2473 -25.03476,-12.2706 -36.6635,-9.9448 -7.42654,1.4853 -26.32275,22.4535 -63.39863,70.3503 -2.76733,3.575 -9.45632,12.125 -14.86441,19 -19.96655,25.3823 -22.55265,28.7735 -32.02873,42 -5.31963,7.425 -12.13494,16.875 -15.14514,21 -11.88537,16.287 -20.54207,30.1359 -27.37908,43.8006 -5.47161,10.9358 -9.68811,17.5829 -17.92037,28.2509 -5.92086,7.6726 -12.06261,15.7948 -13.64831,18.0492 -4.67223,6.6424 -9.1339,10.5563 -12.7505,11.1851 -8.14867,1.4166 -9.71333,1.4828 -15.76582,0.6661 z m 44.47116,-542.0042 c -4.72098,-5.2255 -5.94661,-8.4336 -4.6467,-12.1625 0.55188,-1.5831 2.412,-10.845 4.13359,-20.5818 4.39661,-24.866 3.71926,-32.26165 -4.52843,-49.44417 -4.05315,-8.44396 -17.51356,-20.55425 -31.94175,-28.73786 -15.7068,-8.90884 -42.29926,-9.33149 -58.75988,-0.93391 -2.1818,1.11307 -7.51269,5.41139 -11.84643,9.55182 -5.75563,5.4989 -8.37473,7.37089 -9.71667,6.94498 C 414.66666,967.75943 408,957.25931 408,953.99096 c 0,-1.50173 -0.9495,-5.60154 -2.10999,-9.11069 -1.32091,-3.99422 -2.30194,-10.14773 -2.62326,-16.4544 -0.45358,-8.90259 -0.13865,-11.6936 2.70814,-24 4.53103,-19.58729 6.76255,-26.96278 10.24522,-33.86191 4.09507,-8.11229 14.79021,-23.86938 24.59961,-36.24248 7.12622,-8.98867 9.33265,-10.99816 18.87491,-17.19013 5.94295,-3.85638 13.22777,-8.83661 16.18849,-11.06717 6.24121,-4.70204 18.3619,-8.92279 36.30325,-12.64177 15.97429,-3.31123 30.12842,-3.32051 41.81363,-0.0274 4.675,1.3175 12.53992,3.14395 17.47759,4.05878 9.48462,1.75727 21.84124,6.91744 29.98997,12.52391 6.69988,4.60964 22.54122,20.03124 31.31468,30.48495 16.97446,20.22534 27.18878,39.85178 33.20504,63.80225 5.11983,20.38184 5.52609,25.16874 3.64474,42.9457 -2.6331,24.88025 -6.07787,34.21873 -17.82016,48.30893 -3.88704,4.66427 -7.38106,8.48047 -7.76449,8.48047 -0.38343,0 -3.20356,3.5008 -6.26696,7.7795 -7.67867,10.7251 -17.3161,19.4192 -31.02551,27.9887 -16.3949,10.2481 -25.18167,14.5289 -35.38782,17.2402 -4.87689,1.2956 -14.0232,4.2987 -20.32512,6.6736 -6.30192,2.3749 -11.76206,4.318 -12.13364,4.318 -0.37158,0 -2.32304,-1.8235 -4.33658,-4.0523 z"
         id="path198" />
      <path
         style="fill:#161719"
         d="m 489.22789,1605.022 c -11.10113,-1.7033 -22.11461,-9.5759 -32.4931,-23.2266 -10.50569,-13.818 -15.38969,-26.1839 -13.72061,-34.7395 1.98188,-10.159 5.00889,-20.1617 7.77714,-25.6994 1.61018,-3.2211 4.58445,-10.8632 6.60948,-16.9824 4.24763,-12.8356 9.40452,-23.2558 19.50408,-39.4108 8.85899,-14.1706 17.50861,-30.994 23.66171,-46.0218 8.35183,-20.3977 14.88173,-33.1401 25.08018,-48.9415 5.50218,-8.525 13.28476,-20.9 17.29463,-27.5 11.88754,-19.5662 27.13156,-43.4984 32.52391,-51.0607 2.76908,-3.8834 13.03665,-14.7466 22.81682,-24.1404 19.29486,-18.5328 19.01314,-18.3448 54.71787,-36.5165 16.84539,-8.5734 28.21882,-10.7791 55.59231,-10.781 20.63059,0 38.30562,2.288 58.28864,7.5504 12.10793,3.1886 15.56566,4.7673 31.99341,14.6075 15.40593,9.228 21.54389,13.4257 38.62564,26.4158 19.03402,14.4747 35.46173,25.8689 42.5,29.4778 5.23501,2.6843 7.70891,3.3441 12.71182,3.39 9.69231,0.089 9.86271,-0.2656 8.47728,-17.6432 -1.25994,-15.8036 -7.12632,-46.375 -12.47221,-64.9964 -3.59134,-12.5096 -5.29701,-15.2904 -20.41729,-33.2864 -5.97438,-7.1106 -30.72973,-28.9034 -39.7996,-35.0366 -6.5644,-4.439 -18.26285,-9.0288 -32.48869,-12.7467 -10.43413,-2.727 -13.14888,-3.0274 -29.01131,-3.2109 -11.60154,-0.1341 -18.51116,0.1974 -20.5,0.9838 -1.65,0.6523 -8.88481,5.8678 -16.07735,11.5898 -7.19254,5.722 -17.30924,13.3287 -22.48157,16.9037 -5.24589,3.6258 -16.04503,12.9274 -24.42265,21.0358 -8.26014,7.9947 -18.0932,16.8596 -21.85126,19.6998 -8.87649,6.7085 -23.84692,14.3357 -35.16717,17.9171 -8.57527,2.7129 -9.84946,2.8427 -27,2.7506 -25.26707,-0.1357 -32.85488,-1.8222 -66,-14.6691 -7.7,-2.9845 -16.08316,-6.1871 -18.62924,-7.1169 -2.54608,-0.9297 -7.37304,-3.3615 -10.72657,-5.4039 -7.15071,-4.3549 -29.51076,-21.8809 -38.31119,-30.0285 -10.49171,-9.7135 -29.30455,-36.0849 -37.81595,-53.0097 -12.4296,-24.7159 -24.19875,-77.1493 -21.10655,-94.0328 1.44398,-7.8842 8.44066,-23.19488 12.94287,-28.32262 3.85378,-4.38921 18.61479,-12.23722 26.79525,-14.24627 11.38968,-2.7972 17.85938,-2.99233 22.58642,-0.68119 9.81984,4.8011 22.15848,18.97915 29.87754,34.33158 5.48264,10.9044 6.95903,18.0374 6.26663,30.2761 -1.24816,22.0622 4.95115,38.4477 20.83062,55.058 14.13226,14.7826 24.72089,21.8553 39.81539,26.5949 6.16456,1.9357 9.5782,2.3384 19.47478,2.2972 28.2326,-0.1173 47.75636,-11.5967 62.43008,-36.7072 7.56114,-12.9391 27.03404,-53.9875 29.09452,-61.3306 1.1467,-4.0866 2.80414,-9.1136 3.68319,-11.1712 0.87906,-2.0576 3.50789,-9.1411 5.84186,-15.7411 7.78389,-22.0113 18.20993,-43.95556 26.78945,-56.38519 2.80368,-4.06185 10.51185,-12.8853 17.12925,-19.60765 9.5412,-9.69252 14.76089,-14.01632 25.21695,-20.8888 7.25191,-4.76649 14.69329,-9.29643 16.5364,-10.06653 5.96461,-2.49217 19.03419,-5.42001 29.2783,-6.5589 5.5,-0.61147 13.375,-1.51076 17.5,-1.99842 4.125,-0.48767 17.18474,-0.91094 29.02164,-0.94059 18.98113,-0.0476 22.3454,0.19129 28.5,2.02331 11.06808,3.29461 16.46218,4.58339 24.24677,5.79316 13.83825,2.15055 28.80089,7.76284 52.92683,19.85218 23.81762,11.93483 26.40889,13.63613 56.43106,37.04994 19.6146,15.29712 58.1309,53.72579 70.9357,70.77429 4.5247,6.0243 12.1373,15.0548 16.9169,20.068 11.4442,12.0033 20.7342,26.8965 28.3101,45.3852 3.2679,7.975 7.9416,19.3775 10.3861,25.3389 5.5646,13.5705 15.5891,52.7295 18.9027,73.8404 1.3535,8.6236 3.1488,17.6236 3.9894,20 2.3074,6.5229 9.102,34.3755 10.3241,42.3207 0.5922,3.85 1.1964,21.4 1.3427,39 0.2466,29.672 0.1065,32.7639 -1.9259,42.5 -1.2056,5.775 -2.4865,14.775 -2.8466,20 -0.36,5.225 -1.274,13.1 -2.0311,17.5 -2.9924,17.3908 -17.4456,62.4711 -22.9161,71.4765 -5.5248,9.0947 -11.2047,22.0311 -13.9341,31.7356 -1.3594,4.8334 -3.1669,10.4509 -4.0166,12.4835 -1.9045,4.5557 -12.0485,21.5754 -14.4857,24.3044 -0.9824,1.1 -3.9351,5.3666 -6.5615,9.4814 -2.6265,4.1147 -7.5492,10.4147 -10.9395,14 -3.3902,3.5852 -8.7879,9.7871 -11.9948,13.7819 -8.8978,11.0839 -15.021,16.107 -32.476,26.6419 -20.0258,12.0863 -21.6982,12.8073 -37.6061,16.2126 -12.32641,2.6387 -14.58992,2.8004 -43.68469,3.1195 -33.87058,0.3716 -38.04241,-0.1 -50.3783,-5.6932 -13.04155,-5.9133 -35.31645,-23.069 -51.52952,-39.687 -36.92614,-37.8485 -56.66384,-65.5348 -69.40618,-97.3571 -7.39522,-18.4686 -12.33723,-28.7048 -20.036,-41.5 -3.97117,-6.6 -8.59744,-14.7442 -10.28059,-18.0982 -4.08977,-8.1497 -10.826,-15.7887 -21.56187,-24.4516 -7.21697,-5.8234 -10.48976,-7.7184 -17.5,-10.1327 -7.53298,-2.5944 -9.61287,-2.9082 -16.45567,-2.4825 -7.43819,0.4627 -8.11833,0.7109 -13.5,4.9271 -9.49355,7.4376 -25.26653,25.6795 -48.66718,56.2851 -4.95,6.4741 -13.29253,17.212 -18.53896,23.862 -21.75957,27.5807 -38.25348,49.5817 -46.9237,62.5908 -2.38264,3.575 -6.45872,9.2 -9.05796,12.5 -7.5226,9.5507 -15.08206,21.9522 -22.24893,36.5 -6.25605,12.699 -9.72969,17.8275 -29.73045,43.8948 -6.44561,8.4007 -11.20205,12.916 -14.28556,13.5615 -5.76145,1.206 -11.11551,1.3897 -16.48655,0.5657 z m 46.58865,-540.772 c -5.83415,-6.2729 -6.20385,-7.5187 -4.44915,-14.9919 0.87274,-3.717 2.75987,-13.5081 4.19364,-21.7581 3.68684,-21.2144 2.63972,-30.27439 -5.3171,-46.00448 -4.58104,-9.05641 -18.18653,-21.32684 -32.49538,-29.30673 -11.36638,-6.33891 -32.26906,-9.0275 -44.8032,-5.76277 -12.74849,3.32056 -16.68531,5.45363 -25.54722,13.84217 -7.00803,6.63368 -8.87394,7.92383 -10.23437,7.07637 -3.32632,-2.07207 -7.28587,-9.07898 -8.69598,-15.3886 -0.79354,-3.55078 -2.12343,-8.91653 -2.95529,-11.92389 -3.18573,-11.51702 -2.04053,-22.3752 5.64597,-53.53207 3.27757,-13.28545 12.03365,-28.30906 29.59976,-50.78701 7.8414,-10.03401 9.27842,-11.33561 20.58582,-18.64592 6.68578,-4.3224 13.73096,-9.1927 15.65596,-10.82289 4.25707,-3.6051 18.12038,-8.42222 34.5,-11.9878 15.75558,-3.42975 31.85598,-3.5911 41.32436,-0.41414 3.4784,1.16712 10.30678,2.813 15.17418,3.65751 10.42772,1.80924 14.15893,3.04363 23.65496,7.82576 12.23837,6.16314 26.96285,19.31947 42.53535,38.00537 14.74261,17.69007 25.15175,37.93337 31.01578,60.31828 3.94186,15.04731 4.14977,16.56054 4.10138,29.85084 -0.11556,31.74085 -5.67917,48.47241 -21.78017,65.5 -3.38046,3.575 -8.49587,9.7242 -11.36758,13.6648 -7.37219,10.1164 -15.91338,17.7212 -29.18043,25.9814 -17.66488,10.9984 -23.68612,13.9907 -33.97783,16.886 -9.50649,2.6744 -19.6555,6.1806 -27.87712,9.6309 -5.71056,2.3965 -6.28023,2.3406 -9.30634,-0.9131 z"
         id="path196" />
    </g>
  </g>
</svg>
