<?xml version="1.0" encoding="UTF-8" standalone="no"?>
<!-- Created with Inkscape (http://www.inkscape.org/) -->

<svg
   version="1.1"
   id="svg308"
   width="682.66669"
   height="682.66669"
   viewBox="0 0 682.66669 682.66669"
   sodipodi:docname="enter.svg"
   inkscape:version="1.2.2 (732a01da63, 2022-12-09)"
   xmlns:inkscape="http://www.inkscape.org/namespaces/inkscape"
   xmlns:sodipodi="http://sodipodi.sourceforge.net/DTD/sodipodi-0.dtd"
   xmlns="http://www.w3.org/2000/svg"
   xmlns:svg="http://www.w3.org/2000/svg">
  <defs
     id="defs312" />
  <sodipodi:namedview
     id="namedview310"
     pagecolor="#ffffff"
     bordercolor="#666666"
     borderopacity="1.0"
     inkscape:showpageshadow="2"
     inkscape:pageopacity="0.0"
     inkscape:pagecheckerboard="0"
     inkscape:deskcolor="#d1d1d1"
     showgrid="false"
     inkscape:zoom="1.1777343"
     inkscape:cx="309.49255"
     inkscape:cy="341.75789"
     inkscape:window-width="1920"
     inkscape:window-height="991"
     inkscape:window-x="-9"
     inkscape:window-y="-9"
     inkscape:window-maximized="1"
     inkscape:current-layer="g314" />
  <g
     inkscape:groupmode="layer"
     inkscape:label="Image"
     id="g314">
    <g
       id="g318"
       transform="translate(12.961827,0.04842002)">
      <path
         style="fill:#e4e4e4;stroke-width:1.33333"
         d="m 162.00001,681.08317 c -25.05645,-3.81373 -47.30678,-24.85263 -56.84479,-53.74982 -3.041,-9.21329 -3.08634,-10.26505 -3.52516,-81.77432 -0.33256,-54.19228 -0.0489,-72.91771 1.12596,-74.33333 2.21752,-2.67196 54.83685,-2.79278 57.04593,-0.13094 1.00875,1.21547 1.5759,23.51068 1.82994,71.93657 l 0.36812,70.1752 5.30862,5.43572 c 2.91975,2.98964 7.41975,6.04534 10,6.79044 3.10752,0.89736 68.42206,1.22181 193.46202,0.96105 l 188.77065,-0.39372 4.89743,-3.73559 c 2.69358,-2.05457 5.9468,-5.65457 7.22936,-8 2.19853,-4.02045 2.33193,-19.634 2.33193,-272.93109 0,-253.297084 -0.1334,-268.910624 -2.33193,-272.93108 -1.28256,-2.345424 -4.53578,-5.945425 -7.22936,-8.000001 l -4.89743,-3.73559 -188.77065,-0.393667 c -125.03996,-0.260763 -190.3545,0.06369 -193.46202,0.961055 -2.58025,0.745098 -7.08025,3.800796 -10,6.79044 l -5.30862,5.435716 -0.36812,70.175207 c -0.25404,48.42588 -0.82119,70.72109 -1.82994,71.93656 -2.20908,2.66179 -54.82841,2.54097 -57.04593,-0.13093 -1.17488,-1.41563 -1.45852,-20.14106 -1.12596,-74.33334 0.43882,-71.509314 0.48416,-72.561085 3.52516,-81.774375 10.13025,-30.691494 31.98585,-50.312057 60.17812,-54.0240812 14.13735,-1.86143922 400.76285,-1.04296202 412.00001,0.8721944 10.53818,1.7960287 20.59734,7.7221113 31.69186,18.6704068 7.90957,7.805326 10.77156,11.855199 15.56317,22.022798 3.22921,6.852275 6.51788,16.018878 7.30815,20.370228 2.01756,11.109192 2.01756,545.067739 0,556.176929 -0.79027,4.35134 -4.07894,13.51796 -7.30815,20.37023 -4.79161,10.1676 -7.6536,14.21746 -15.56317,22.0228 -11.09419,10.94797 -21.15323,16.87412 -31.69186,18.67082 -9.6974,1.6533 -404.66361,2.22151 -415.33334,0.59751 z m 57.94918,-168.08315 c -4.55388,-2.29639 -6.73097,-4.56358 -9.28252,-9.66667 -3.27277,-6.54553 -3.34112,-7.32684 -3.76206,-43 l -0.42874,-36.33334 h -75.72261 c -45.193493,0 -78.618184,-0.54137 -82.904605,-1.34277 -9.11892,-1.70492 -16.923906,-7.12752 -21.181987,-14.71643 l -3.333334,-5.9408 v -60.66667 -60.66666 l 3.333334,-5.9408 c 4.258081,-7.58891 12.063067,-13.01151 21.181987,-14.71643 4.286329,-0.80139 37.706831,-1.34277 82.891575,-1.34277 h 75.70959 l 0.44781,-37.66667 c 0.4308,-36.23708 0.56348,-37.88372 3.49554,-43.38564 4.14418,-7.77642 9.68813,-10.93647 19.19772,-10.94271 l 7.59088,-0.005 97.07579,84.02679 c 53.39168,46.21473 98.15312,85.39444 99.46985,87.066 1.31675,1.67156 2.0312,3.98487 1.58767,5.14068 -0.85463,2.22713 -192.23499,168.62419 -197.1183,171.38595 -4.44927,2.51629 -11.724,2.00357 -18.24759,-1.28608 z"
         id="path332" />
      <path
         style="fill:#d0d0d0;stroke-width:1.33333"
         d="M 161.30169,680.72569 C 137.6683,676.43 115.81654,656.0218 106.98799,630.00002 l -3.61894,-10.66667 -0.0178,-74 -0.0179,-74 h 28 28 l 0.66667,70.23695 c 0.74985,79.00063 -0.14262,72.49736 11.20997,81.68588 l 5.03744,4.07717 h 190.97359 190.97361 l 5.54303,-3.66816 c 3.04866,-2.01748 6.90488,-6.21748 8.56937,-9.33333 l 3.02633,-5.66517 V 341.33334 74.000003 l -3.02633,-5.665181 c -1.66449,-3.115848 -5.52071,-7.315848 -8.56937,-9.333333 l -5.54303,-3.668154 H 367.22101 176.24742 l -5.03744,4.07718 c -11.35259,9.188514 -10.46012,2.685254 -11.20997,81.685875 l -0.66667,70.23695 h -28 -28 l 0.0178,-74 0.0178,-74.000005 3.61894,-10.666667 c 9.06576,-26.720899 30.60646,-46.4301905 55.55167,-50.8285826 15.78116,-2.78256939 394.79157,-2.61462059 410.60494,0.1819492 14.57208,2.5770504 22.56623,6.9995232 35.209,19.4781034 8.34315,8.234792 11.36348,12.38251 15.55451,21.360486 2.86052,6.127758 5.8514,14.701574 6.64643,19.052923 2.0334,11.129335 2.0334,547.714263 0,558.843593 -0.79503,4.35135 -3.78591,12.92516 -6.64643,19.05292 -4.19103,8.97799 -7.21136,13.1257 -15.55451,21.3605 -5.69446,5.6205 -13.43852,11.85893 -17.209,13.86314 -14.51861,7.71746 -10.96758,7.60027 -225.14458,7.43044 -144.7635,-0.1148 -198.27384,-0.5687 -204.69832,-1.73645 z m 59.36498,-167.92902 c -2.2,-0.97111 -5.00824,-2.89872 -6.24053,-4.28359 -5.10083,-5.7324 -5.6452,-9.81769 -6.37568,-47.8464 L 207.33334,423.33335 126,422.66668 c -75.855949,-0.62177 -81.669509,-0.83377 -86.325217,-3.14807 -6.506791,-3.23445 -12.508643,-10.17096 -14.261278,-16.48216 -1.895872,-6.82698 -1.895872,-116.57923 0,-123.40621 1.752635,-6.3112 7.754487,-13.24771 14.261278,-16.48216 4.655708,-2.3143 10.469268,-2.5263 86.325217,-3.14807 l 81.33334,-0.66667 0.67512,-38.66667 c 0.73451,-42.06758 1.03432,-43.76482 8.81139,-49.88226 2.75102,-2.16396 5.43861,-2.7844 12.06129,-2.7844 h 8.52151 l 98.63201,85.48916 c 61.26483,53.10121 98.63202,86.38319 98.63202,87.84895 0,2.00909 -55.51037,50.82201 -182.32674,160.32856 -14.52807,12.54506 -15.27572,12.99818 -21.36409,12.94782 -3.47004,-0.0287 -8.10918,-0.84674 -10.30918,-1.81783 z"
         id="path330" />
      <path
         style="fill:#a4a4a4;stroke-width:1.33333"
         d="m 161.5515,680.54961 c -11.02721,-2.41379 -22.20612,-8.47337 -32.02607,-17.35991 -10.55404,-9.55086 -17.07902,-19.72845 -22.05005,-34.39343 l -4.11161,-12.12958 -0.42363,-71.10624 c -0.31679,-53.17157 -0.0272,-71.5839 1.14804,-73.00001 2.10004,-2.5304 51.80633,-2.79925 54.31183,-0.29376 1.20293,1.20294 1.60124,18.65752 1.60498,70.33334 0.005,77.18881 -0.54477,72.78449 10.11087,80.91223 l 5.00955,3.8211 191.29719,0.3468 191.29719,0.34679 5.92674,-3.47329 c 4.43886,-2.60135 6.73014,-5.19883 9.12708,-10.34679 l 3.20036,-6.87351 v -266 -266.000014 l -3.20036,-6.873502 c -2.39694,-5.147963 -4.68822,-7.745443 -9.12708,-10.346793 l -5.92674,-3.473294 -191.29719,0.346794 -191.29719,0.346794 -5.00955,3.821107 c -10.65564,8.127736 -10.10527,3.723411 -10.11087,80.912228 -0.004,51.67582 -0.40205,69.1304 -1.60498,70.33334 -2.5055,2.50549 -52.21179,2.23664 -54.31183,-0.29376 -1.17527,-1.41611 -1.46483,-19.82844 -1.14804,-73.00001 l 0.42363,-71.106238 4.11161,-12.129587 c 4.97103,-14.66497 11.49601,-24.842566 22.05005,-34.393424 10.17536,-9.20817 20.98823,-14.9205267 33.0429,-17.4563044 14.52016,-3.0544097 395.00648,-3.0447109 409.67785,0.01044 14.92936,3.1088761 23.00633,7.6755853 35.43455,20.0346604 12.33529,12.266667 18.9652,24.224586 22.39,40.3833 2.815,13.281633 2.815,544.486873 0,557.768503 -3.4248,16.15872 -10.05471,28.11664 -22.39,40.38331 -6.93995,6.90133 -13.72664,12.2568 -18.34738,14.47815 -16.33233,7.8515 -8.80322,7.59994 -223.08718,7.45376 -162.0098,-0.11054 -197.72006,-0.45651 -204.69467,-1.9832 z m 61.53767,-167.51969 c -6.40998,-2.06084 -10.71142,-7.4495 -13.0193,-16.31006 -1.60108,-6.14699 -2.06986,-15.41942 -2.06986,-40.9416 v -32.99483 l -80.33334,-0.39171 c -89.13821,-0.43464 -85.735709,-0.0985 -95.369872,-9.42292 -7.878722,-7.62544 -8.296797,-11.23515 -8.296797,-71.63546 0,-60.4003 0.418075,-64.01001 8.296797,-71.63545 9.63321,-9.32353 6.244106,-8.98831 95.261982,-9.42268 l 80.22544,-0.39147 0.46973,-37.60853 c 0.50936,-40.78126 0.94832,-43.44884 8.25915,-50.19144 2.66693,-2.45964 5.41663,-3.38652 11.31157,-3.81292 l 7.78815,-0.56335 15.22435,13.14625 c 127.16947,109.81099 182.49618,158.46349 182.49618,160.4812 0,2.27108 -192.211,170.20507 -197.13724,172.23801 -3.07478,1.26891 -8.12149,1.05982 -13.10694,-0.54304 z"
         id="path328" />
      <path
         style="fill:#595959;stroke-width:1.33333"
         d="m 162.83167,680.56318 c -25.02179,-6.72988 -45.94732,-26.65246 -54.50913,-51.89649 l -3.61773,-10.66667 -0.0191,-72.66667 -0.0191,-72.66667 h 26.66666 26.66667 l 0.66667,70.23695 c 0.74985,79.00063 -0.14261,72.49736 11.20997,81.68588 l 5.03744,4.07718 h 192.30694 192.30693 l 5.54303,-3.66816 c 3.04866,-2.01748 6.90488,-6.21748 8.56937,-9.33334 l 3.02633,-5.66517 V 341.33334 72.666669 l -3.02634,-5.66518 c -1.66449,-3.115848 -5.5207,-7.315848 -8.56937,-9.333334 l -5.54303,-3.668153 H 367.22103 174.91409 l -5.03744,4.07718 c -11.35259,9.188512 -10.46012,2.685252 -11.20998,81.685878 l -0.66666,70.23695 h -26.66667 -26.66667 l 0.0191,-72.66667 0.0191,-72.666671 3.61773,-10.666667 C 115.08025,34.075262 128.39806,18.359005 146.65327,8.7661595 164.41071,-0.56510529 150.1847,0 367.33335,0 583.16303,0 569.91573,-0.49511562 588.00002,8.2473801 601.2211,14.63885 615.90541,29.904949 622.57477,44.191958 c 2.86052,6.127757 5.8514,14.701573 6.64642,19.052923 2.0333,11.128712 2.0333,545.048219 0,556.176929 -5.20481,28.48725 -29.2252,53.91204 -57.83464,61.21605 -11.66004,2.97683 -397.47158,2.90631 -408.55488,-0.0747 z m 59.16834,-169.09984 c -2.2,-0.97111 -5.00824,-2.89872 -6.24054,-4.28359 -5.10082,-5.7324 -5.6452,-9.81769 -6.37568,-47.8464 l -0.71712,-37.33334 -81.33333,-0.66666 c -75.855956,-0.62178 -81.669516,-0.83378 -86.325224,-3.14807 -6.506791,-3.23445 -12.508643,-10.17096 -14.261278,-16.48216 -1.894065,-6.82048 -1.894065,-113.91907 0,-120.73955 1.752635,-6.3112 7.754487,-13.24771 14.261278,-16.48216 4.655708,-2.31429 10.469268,-2.52629 86.325224,-3.14807 l 81.33333,-0.66666 0.67512,-38.66667 c 0.58027,-33.23316 0.99808,-39.25906 2.97336,-42.88227 3.85387,-7.06905 8.4506,-9.7844 16.56378,-9.7844 h 7.18594 l 97.96758,84.90747 c 55.529,48.12641 97.96756,85.85643 97.96756,87.09808 0,1.8065 -59.45692,54.0363 -180.99477,158.99446 -13.33159,11.51295 -15.62274,12.99403 -20.02939,12.94781 -2.73671,-0.0287 -6.77584,-0.84673 -8.97584,-1.81782 z"
         id="path326" />
      <path
         style="fill:#2d2d2d;stroke-width:1.33333"
         d="m 166.86443,681.71856 c -1.72456,-0.33342 -9.14618,-3.63171 -16.49248,-7.32955 -15.89137,-7.99908 -27.45341,-18.56877 -34.70056,-31.72232 -9.79169,-17.77188 -9.51375,-15.10106 -10.0248,-96.33334 l -0.45925,-73 h 26.073 26.073 v 66.84531 c 0,47.05099 0.46036,68.38184 1.55461,72.03416 1.94288,6.48473 11.02699,15.08333 17.97246,17.01188 7.80388,2.16691 374.97134,1.99892 382.22682,-0.17488 2.96814,-0.88927 7.6226,-3.73927 10.34327,-6.33333 9.92603,-9.46412 9.23619,11.55211 9.23619,-281.38315 0,-292.935242 0.68984,-271.91902 -9.23619,-281.383145 -2.72067,-2.59406 -7.37513,-5.44406 -10.34327,-6.333333 -7.25548,-2.173795 -374.42294,-2.34178 -382.22682,-0.174874 -6.94547,1.92855 -16.02958,10.527145 -17.97246,17.011881 -1.09425,3.652323 -1.55461,24.983173 -1.55461,72.034161 v 66.84531 h -26.073 -26.073 l 0.45925,-73 c 0.51105,-81.232289 0.23311,-78.561463 10.0248,-96.333339 7.21623,-13.097409 18.77072,-23.665211 35.16947,-32.166161 l 13.82581,-7.16717331 h 202.13141 c 147.17668,0 203.00193,0.40860701 205.33334,1.50291561 23.30977,10.9410717 24.81341,11.8740617 34.18119,21.2090367 10.72818,10.690629 19.2156,26.015821 21.6747,39.136703 1.854,9.892238 1.854,547.743808 0,557.636048 -4.06034,21.66448 -21.65317,44.19549 -41.98729,53.77284 -5.86667,2.7632 -11.86667,5.71065 -13.33333,6.54991 -1.96607,1.12501 -55.21206,1.56856 -202.66668,1.68828 -110,0.0893 -201.41102,-0.1104 -203.13558,-0.44384 z m 53.53364,-172.33124 c -8.63165,-5.26302 -9.01796,-7.25629 -9.49018,-48.96716 -0.31335,-27.67792 -0.85774,-37.93863 -2.06608,-38.94147 -1.06534,-0.88414 -30.214,-1.499 -83.12778,-1.75346 l -81.487147,-0.39188 -5.780107,-4.01784 c -3.378101,-2.34816 -7.026802,-6.48268 -8.780108,-9.94918 -2.974472,-5.88088 -3,-6.42577 -3,-64.03299 0,-57.60721 0.02553,-58.1521 3,-64.03298 1.753306,-3.4665 5.402007,-7.60102 8.780108,-9.94918 l 5.780107,-4.01784 81.487147,-0.39188 c 52.95435,-0.25465 82.06206,-0.869 83.12902,-1.75449 1.21158,-1.00552 1.75304,-11.38573 2.06608,-39.60814 0.36982,-33.3423 0.72237,-38.79066 2.74993,-42.49789 3.44908,-6.30637 7.29115,-8.41427 15.33672,-8.41427 h 7.06909 l 97.96758,84.90747 c 53.88216,46.69911 97.96756,85.29324 97.96756,85.76475 0,0.68763 -89.27481,78.45322 -180.99477,157.66113 -13.93178,12.03125 -15.47403,12.99962 -20.69606,12.99501 -3.24168,-0.003 -7.45876,-1.11241 -9.91111,-2.60771 z"
         id="path324" />
      <path
         style="fill:#191919;stroke-width:1.33333"
         d="m 166.31074,681.7095 c -2.02911,-0.30669 -3.34369,-1.1168 -2.92132,-1.80022 0.42239,-0.68343 -0.098,-1.24259 -1.15633,-1.24259 -1.05836,0 -6.64378,-2.36664 -12.41202,-5.2592 -19.57802,-9.81765 -33.15002,-25.3868 -40.16395,-46.07414 l -3.61647,-10.66666 -0.0203,-71.33334 L 106,474.00002 h 25.33334 25.33333 l 0.66667,70.23695 c 0.74985,79.00062 -0.14261,72.49736 11.20997,81.68588 l 5.03744,4.07717 h 193.64028 193.64026 l 5.54302,-3.66816 c 3.04867,-2.01748 6.90488,-6.21748 8.56938,-9.33333 l 3.02633,-5.66518 V 341.33334 71.333336 l -3.02633,-5.66518 c -1.6645,-3.115849 -5.52071,-7.315849 -8.56938,-9.333334 l -5.54302,-3.668154 H 367.22103 173.58075 l -5.03744,4.077181 c -11.35258,9.188512 -10.46012,2.685252 -11.20997,81.685871 l -0.66667,70.23695 H 131.33334 106 l 0.0203,-71.33333 0.0203,-71.333338 3.61648,-10.666667 c 7.01393,-20.687336 20.58593,-36.256481 40.16395,-46.0741283 5.76824,-2.8925635 11.35366,-5.2592066 12.41202,-5.2592066 1.05836,0 1.6008,-0.523428 1.20541,-1.1631732 -0.39537,-0.6397452 1.51921,-1.5331419 4.25465,-1.98532586 6.49802,-1.07416037 392.78238,-1.07416037 399.28039,0 2.73544,0.45218396 4.71248,1.24453126 4.39343,1.76077196 -0.31906,0.5162407 2.60388,1.9422796 6.49541,3.1689752 23.08424,7.2766678 45.40576,33.5120398 50.02548,58.7969658 2.03317,11.128083 2.03317,542.382176 0,553.510256 -4.61972,25.28493 -26.94124,51.5203 -50.02548,58.79697 -3.89153,1.2267 -6.81447,2.65273 -6.49541,3.16898 0.31905,0.51624 -1.65799,1.30859 -4.39343,1.76076 -5.4476,0.90052 -394.68509,0.79786 -400.6628,-0.10573 z M 223.33334,510.13 c -2.2,-0.9711 -5.00824,-2.89872 -6.24053,-4.28358 -5.10083,-5.7324 -5.6452,-9.8177 -6.37568,-47.8464 l -0.71712,-37.33334 -81.33334,-0.66667 c -75.855952,-0.62177 -81.669512,-0.83377 -86.325221,-3.14806 -6.50679,-3.23446 -12.508643,-10.17096 -14.261277,-16.48216 -1.892168,-6.81366 -1.892168,-111.25923 0,-118.07289 1.752634,-6.3112 7.754487,-13.2477 14.261277,-16.48216 4.655709,-2.31429 10.469269,-2.52629 86.325221,-3.14806 l 81.33334,-0.66667 0.67512,-38.66667 c 0.58026,-33.23316 0.99808,-39.25905 2.97336,-42.88227 3.6036,-6.61 8.54488,-9.7844 15.23044,-9.7844 5.82772,0 6.2694,0.36122 103.82019,84.90747 53.88216,46.69911 97.96756,85.29324 97.96756,85.76475 0,0.68763 -89.27481,78.45322 -180.99478,157.66113 -15.97175,13.79294 -18.18597,14.72861 -26.33856,11.12998 z"
         id="path322" />
      <path
         style="fill:#000000;stroke-width:1.33333"
         d="m 166.00001,681.33336 -4,-1.01783 4,-0.24551 c 3.32502,-0.20406 2.78781,-0.57149 -3.18356,-2.1774 -23.24194,-6.25053 -43.96359,-26.08072 -51.99951,-49.76244 l -3.43747,-10.13016 -0.43055,-71.66667 -0.43055,-71.66667 h 24.74082 24.74082 l 0.0293,67.66667 c 0.0272,62.94067 0.20145,68.04575 2.49447,73.09432 2.92054,6.43022 10.95356,13.44406 17.47625,15.25899 2.92577,0.81409 74.86751,1.30127 192.84775,1.30592 l 188.18109,0.008 7.15225,-3.71865 c 5.75083,-2.99 7.93603,-5.14538 11.15226,-11 l 4,-7.28135 V 341.33391 72.667229 l -4,-7.281351 c -3.21623,-5.854625 -5.40143,-8.009991 -11.15226,-11 l -7.1523,-3.71921 -188.18109,0.0074 c -117.98024,0.0047 -189.92198,0.491838 -192.84775,1.305927 -6.5227,1.814926 -14.55571,8.82877 -17.47626,15.258983 -2.29301,5.048574 -2.46722,10.153661 -2.49446,73.094322 l -0.0293,67.66667 h -24.74082 -24.74082 l 0.43055,-71.66667 0.43055,-71.666667 3.43747,-10.13016 c 8.03592,-23.681716 28.75757,-43.511904 51.99951,-49.7624431 5.97137,-1.6059063 6.50858,-1.9733297 3.18356,-2.1774041 l -4,-0.2455012 4,-1.0178272 c 5.22706,-1.33006137 397.43961,-1.33006137 402.66668,0 l 4,1.0178272 -4,0.2455012 c -3.28399,0.201556 -2.68732,0.5939267 3.33333,2.1919889 13.31608,3.5344872 21.46049,8.4545393 33.01404,19.9438063 12.24804,12.179908 18.86332,24.012853 21.53059,38.512424 2.05121,11.150623 2.05121,545.026295 0,556.176925 -2.66727,14.49957 -9.28255,26.33252 -21.53059,38.51243 -11.55355,11.48926 -19.69796,16.40932 -33.01404,19.9438 -6.02065,1.59806 -6.61732,1.99044 -3.33333,2.19198 l 4,0.24551 -4,1.01783 c -2.2,0.5598 -92.80001,1.01782 -201.33334,1.01782 -108.53334,0 -199.13334,-0.45802 -201.33334,-1.01782 z m 57.33333,-171.90673 c -4.59185,-1.95439 -8.4508,-7.19535 -9.88611,-13.42661 -0.76012,-3.3 -1.3967,-21.37654 -1.41462,-40.17008 -0.0252,-26.37251 -0.42802,-34.49823 -1.76535,-35.60813 -1.18579,-0.98412 -27.38524,-1.56174 -83,-1.82992 -72.771211,-0.3509 -81.685437,-0.62337 -85.267259,-2.60617 -5.878593,-3.25424 -11.205667,-9.35816 -12.692928,-14.54393 -1.732829,-6.04203 -1.732829,-113.77486 0,-119.81689 1.487261,-5.18577 6.814335,-11.28969 12.692928,-14.54393 3.581822,-1.9828 12.496048,-2.25527 85.267259,-2.60617 55.61476,-0.26818 81.81421,-0.8458 83,-1.82992 1.33771,-1.1102 1.74599,-9.38031 1.79081,-36.27479 0.0319,-19.16022 0.55886,-37.42763 1.17092,-40.59426 0.65479,-3.38772 2.67703,-7.39017 4.9131,-9.72412 3.39342,-3.54197 4.53674,-3.92477 10.68002,-3.57582 l 6.87976,0.39078 96.81574,83.90099 c 53.24866,46.14555 96.81574,84.29011 96.81574,84.76568 0,0.47558 -43.56488,38.62014 -96.81085,84.76569 -87.01905,75.41495 -97.30199,83.92939 -101.66667,84.18179 -2.6707,0.15444 -6.05582,-0.22995 -7.52249,-0.85419 z"
         id="path320" />
    </g>
  </g>
</svg>
