<?xml version="1.0" encoding="UTF-8" standalone="no"?>
<!-- Created with Inkscape (http://www.inkscape.org/) -->

<svg
   version="1.1"
   id="svg205"
   width="1280"
   height="960"
   viewBox="0 0 1280 960"
   sodipodi:docname="quote2.svg"
   inkscape:version="1.2.2 (732a01da63, 2022-12-09)"
   xmlns:inkscape="http://www.inkscape.org/namespaces/inkscape"
   xmlns:sodipodi="http://sodipodi.sourceforge.net/DTD/sodipodi-0.dtd"
   xmlns="http://www.w3.org/2000/svg"
   xmlns:svg="http://www.w3.org/2000/svg">
  <defs
     id="defs209" />
  <sodipodi:namedview
     id="namedview207"
     pagecolor="#ffffff"
     bordercolor="#666666"
     borderopacity="1.0"
     inkscape:showpageshadow="2"
     inkscape:pageopacity="0.0"
     inkscape:pagecheckerboard="0"
     inkscape:deskcolor="#d1d1d1"
     showgrid="false"
     inkscape:zoom="0.8375"
     inkscape:cx="595.22388"
     inkscape:cy="480.59701"
     inkscape:window-width="1920"
     inkscape:window-height="991"
     inkscape:window-x="-9"
     inkscape:window-y="-9"
     inkscape:window-maximized="1"
     inkscape:current-layer="g211" />
  <g
     inkscape:groupmode="layer"
     inkscape:label="Image"
     id="g211">
    <g
       id="g215"
       transform="translate(-2.3682367,-20.532735)">
      <path
         style="fill:#d0d0d0"
         d="M 298,936.93828 C 236.15865,930.15678 179.22523,900.66349 141.75793,856 107.21877,814.82705 88.975415,763.6433 89.008671,708.00613 89.028003,675.66246 93.338063,633.75347 98.916804,611.6641 110.53011,565.68051 138.09248,530.62741 188.5,497.73456 c 19.17676,-12.51357 36.10308,-21.41773 79.48864,-41.81531 47.57521,-22.36734 73.37703,-43.39733 81.50324,-66.42989 3.26447,-9.2527 3.44184,-22.64639 0.44375,-33.50946 C 342.78179,330.05921 317.63365,294.91792 269.13099,243.06581 248.18296,220.67117 219.30059,198.84174 164.5,163.98524 114.16643,131.97002 96.992085,117.86657 89.324228,102.25139 86.971073,97.459315 86.505812,95.249022 86.534845,89 c 0.02884,-6.206734 0.513111,-8.41944 2.808439,-12.832081 2.261832,-4.348245 3.629967,-5.710895 7.414866,-7.385136 34.10948,-15.088246 181.19172,53.625817 281.78275,131.643607 29.47076,22.85735 49.66262,41.11167 66.29278,59.93158 40.23878,45.53715 73.38138,100.84134 98.66641,164.64203 53.21436,134.27365 55.26986,268.56149 5.63285,368 -18.44163,36.94438 -41.18502,66.53236 -67.13294,87.33652 -36.9357,29.61378 -78.42669,48.07041 -124,55.15949 -12.48825,1.94258 -47.71558,2.78938 -60,1.44227 z m 616.32867,-2.95696 C 859.42315,928.63827 809.17462,906.04767 771.38149,869.71552 733.6971,833.4879 712.05441,790.43609 704.41235,736.5 c -3.09366,-21.83442 -1.62301,-70.32005 3.13932,-103.5 5.92107,-41.25306 20.33694,-71.95628 46.79791,-99.67115 26.20533,-27.44713 58.7298,-48.59249 115.15042,-74.86356 26.51056,-12.34409 39.74753,-19.35751 53.40979,-28.29845 34.90008,-22.83951 47.91953,-46.45224 41.16554,-74.65992 C 957.58782,328.41219 935.86522,297.59636 882.04268,239.13484 862.49583,217.90324 837.42448,199.09954 775.5,159.22702 738.88017,135.64791 727.22314,127.18058 715.90788,115.94104 700.89135,101.025 696.86015,89.969289 701.42579,76.223411 705.16521,64.965096 713.90636,61.676971 733,64.346267 808.95278,74.964488 971.9522,168.50698 1045.9003,243.91423 1120.4968,319.98272 1178.7759,444.8184 1193.9305,561 c 6.0061,46.0451 5.6652,94.91914 -0.9312,133.50402 -8.3446,48.81094 -23.8998,89.50264 -48.7376,127.49598 -14.2719,21.83103 -25.9817,35.50115 -42.8118,49.97866 -38.3582,32.99643 -83.0133,53.50054 -131.9499,60.58706 -12.52463,1.81369 -43.03575,2.59656 -55.17133,1.4156 z"
         id="path229" />
      <path
         style="fill:#afafaf"
         d="M 296,935.94542 C 242.97275,929.46239 195.70898,907.64156 157.86077,872.16906 128.2156,844.38468 103.92584,800.92847 95.124682,759.92943 88.839936,730.65278 88.329625,693.5576 93.564258,646.5 98.979556,597.81828 112.93221,566.48671 142.9346,535.63578 c 23.46781,-24.13154 53.45373,-44.39552 95.94201,-64.83598 64.38783,-30.976 76.59195,-38.17589 93.66096,-55.25581 14.57515,-14.58448 20.48124,-27.00576 20.44765,-43.00409 C 352.92493,343.82557 331.50284,309.8806 273.44361,246.5 249.09403,219.91868 225.55726,202.14944 154.21198,156.48525 96.854981,119.77419 81.184719,101.42319 88.602829,79.652233 92.192882,69.116006 100.10168,65.840946 116.96498,67.907365 c 27.28965,3.344057 65.51043,17.328991 115.22862,42.162005 68.60213,34.26507 133.74797,77.6406 183.50645,122.1826 36.81773,32.95791 71.72201,79.69727 100.62788,134.74803 29.09598,55.41281 51.0311,120.77026 61.08244,182 5.18569,31.58962 6.04458,43.05406 6.03087,80.5 -0.0112,30.64914 -0.29239,37.06711 -2.26188,51.62866 -5.92661,43.81882 -15.54961,76.5196 -32.87432,111.7131 -15.04845,30.56952 -37.23396,61.10637 -56.94654,78.38306 -38.36993,33.62855 -80.18928,54.13488 -127.3585,62.45089 -12.1366,2.13971 -18.24884,2.60774 -37.5,2.87151 -12.65,0.17333 -26.375,-0.0975 -30.5,-0.6018 z m 615.76089,-2.96271 C 856.5854,926.66486 808.27051,904.43227 770.63218,868.0409 729.45719,828.23004 706.23797,775.35756 703.3595,714.85427 c -1.17631,-24.72516 3.11685,-76.8613 8.19279,-99.49329 10.34538,-46.12671 34.44094,-80.27697 79.17749,-112.21703 C 811.3687,488.40862 836.7999,474.45614 878.5,454.99002 907.07212,441.6522 924.48029,431.34583 939.73485,418.73636 960.44391,401.61821 969.45215,381.26255 965.7282,360 960.97473,332.85926 941.83385,304.01001 892.19809,249.17501 862.14178,215.97037 848.57779,205.60604 759.78852,148 726.24425,126.23664 710.32006,112.40255 703.96096,99.5 c -3.9504,-8.015351 -4.62538,-13.702648 -2.4957,-21.028501 4.24083,-14.587931 15.87269,-17.518907 44.05764,-11.101569 38.83897,8.843119 104.17076,38.48996 162.95784,73.94846 59.06305,35.62496 111.93656,76.2273 143.79476,110.42204 54.7997,58.81894 101.3634,145.73885 125.5803,234.41899 29.1489,106.74082 26.0868,206.94512 -8.8116,288.3456 -14.9857,34.95418 -38.9079,70.45839 -61.1534,90.76101 -39.4836,36.03515 -85.3562,58.39567 -135.8908,66.23969 -12.27259,1.90497 -48.70109,2.79814 -60.23911,1.47699 z"
         id="path227" />
      <path
         style="fill:#8f8f8f"
         d="M 301.5,935.93025 C 211.79852,927.47972 135.95175,872.12603 105.654,793 92.949246,759.8201 88.601321,728.55777 90.865502,686.66822 93.704279,634.14807 98.870179,607.14428 111.02532,581.28644 131.09112,538.60015 171.51034,503.77269 238.5,471.4471 c 9.35,-4.5118 25.1,-12.10979 35,-16.88441 25.63419,-12.36299 45.32458,-24.78167 57.86952,-36.49815 C 346.71727,403.73034 355.36401,384.1823 353.5147,368 350.1563,338.61249 329.90017,307.73372 273.3544,245.80234 248.98162,219.10821 229.5583,204.54096 148.28578,152.0024 106.14628,124.76135 89.902603,108.87027 87.445089,92.482392 85.968204,82.633816 91.41676,71.39014 98.727584,69.199764 137.04143,57.720657 280.74357,125.89552 378.42077,201.89121 c 52.70969,41.00968 84.6984,76.29403 116.91624,128.96158 47.39315,77.47514 77.07485,164.76976 86.26603,253.71061 2.10632,20.38229 2.39873,65.85369 0.53977,83.9366 -7.02444,68.32988 -27.57478,123.94528 -63.55539,172 -37.67152,50.31305 -99.58081,85.53848 -166.08742,94.50118 -11.36588,1.53172 -39.21729,2.03908 -51,0.92907 z m 616,-2.99077 C 834.05636,926.06657 761.71289,878.42212 727.03233,807.5 c -10.42817,-21.32573 -16.8567,-41.73678 -20.7357,-65.83737 -1.43105,-8.89127 -1.79197,-16.96179 -1.77371,-39.66263 0.0697,-86.67167 13.65838,-130.20385 53.18774,-170.39009 22.26143,-22.63137 54.00678,-44.04044 93.19583,-62.85127 65.68819,-31.53049 78.5889,-39.10642 95.6724,-56.18352 C 962.34295,396.81696 967.84662,383.93464 966.69061,365.5 965.05298,339.385 946.38288,309.13698 899.43076,256.53018 877.27778,231.7092 870.91023,225.38521 856.5,213.89315 836.13875,197.65517 818.42542,185.41732 770.5,154.47713 737.83376,133.38811 728.92385,126.83704 717.48837,115.5 c -13.2067,-13.09301 -15.97855,-18.121958 -15.98421,-29 -0.005,-10.583918 2.83382,-16.841153 8.88995,-19.591449 9.35804,-4.24981 31.37241,-1.434497 57.75076,7.38547 88.2178,29.496849 210.41694,104.393379 274.41483,168.190379 76.0386,75.79984 134.477,200.24995 150.3464,320.17663 4.8933,36.97906 5.3527,84.64259 1.1212,116.33897 -8.7115,65.25603 -30.8493,119.7339 -67.0498,165 -31.1476,38.94778 -84.9256,71.82392 -136.4775,83.43286 -22.51941,5.07112 -51.62844,7.26691 -73,5.50662 z"
         id="path225" />
      <path
         style="fill:#6f6f6f"
         d="m 299.5,935.4032 c -1.65,-0.22895 -6.6,-0.89014 -11,-1.46932 C 244.87406,928.19133 200.7601,908.22454 166.38912,878.66425 131.84189,848.95239 106.65449,806.78824 96.607308,761.84828 91.683777,739.82586 90.723375,728.18886 91.337903,698 93.071874,612.81817 105.9701,573.83317 145.43874,534.47981 170.04048,509.94992 196.42707,492.28783 239.85781,471.27962 250.66101,466.05392 266.7,458.29556 275.5,454.03883 304.05672,440.22538 321.17154,428.8033 335.02311,414.31429 349.3155,399.3642 354.78347,386.11044 353.71797,369 352.0789,342.67878 334.32298,313.68627 287.57537,261 265.41438,236.02376 258.76671,229.29095 246.5,219.39856 224.22943,201.43864 203.86818,187.25764 160.86815,159.75855 128.44684,139.02469 115.87497,129.85128 104.32464,118.5 92.206599,106.5908 88.002099,99.218105 88.000789,89.875727 c -0.0023,-16.256156 8.171178,-23.033153 25.864761,-21.445686 59.79037,5.364388 192.638,74.584829 279.04985,145.399299 39.1439,32.07841 63.04776,58.39519 90.53212,99.67066 31.10875,46.71851 52.09018,89.98132 70.56403,145.5 14.06771,42.27709 22.23544,79.7076 27.16721,124.5 1.76167,16.00013 1.78459,76.21911 0.0345,90.5 -8.54469,69.72365 -29.52295,123.43707 -67.07209,171.73357 -28.20573,36.2788 -77.93026,68.39696 -126.4982,81.70795 -22.66675,6.21227 -34.36195,7.7588 -61.14293,8.08533 -13.2,0.16094 -25.35,0.1053 -27,-0.12365 z m 615,-3.02072 C 825.20833,923.15442 751.51168,869.93516 720.63664,792.38611 706.7077,757.40068 702.13725,724.09776 705.00473,678.48293 708.34444,625.35623 713.057,602.84346 726.562,575.5 c 16.43823,-33.28236 43.28611,-59.8333 87.55209,-86.58376 12.58027,-7.6024 30.95683,-16.96138 73.38591,-37.37462 28.74809,-13.83113 47.15898,-25.85539 60.5,-39.51291 26.31246,-26.9367 25.80555,-56.82322 -1.65741,-97.7179 C 927.59767,286.39804 883.71533,235.98158 863.5,219.13289 842.0194,201.22964 828.54474,191.85777 758.5393,146.13085 715.75111,118.18199 701.56952,103.22585 701.52249,86 c -0.0223,-8.172433 3.31526,-15.51491 8.36687,-18.406667 14.20966,-8.134218 62.18867,4.813994 119.73926,32.314326 C 927.61075,146.72804 1019.479,212.31147 1066.4907,269 c 41.6297,50.19877 77.2883,115.73384 100.4347,184.58352 43.4338,129.19496 39.2963,254.17387 -11.4814,346.81603 -27.1961,49.61826 -61.338,82.72904 -109.944,106.62376 -19.2113,9.44427 -31.4103,14.02868 -49.35947,18.54934 -20.88109,5.2591 -31.20191,6.5388 -55.64053,6.89898 -12.1,0.17834 -23.8,0.13822 -26,-0.0892 z"
         id="path223" />
      <path
         style="fill:#4e4e4e"
         d="M 299.5,934.97255 C 243.91429,928.71947 195.64257,906.71755 158.13015,870.53714 128.63237,842.08679 107.29918,804.57149 97.54748,764 90.092987,732.98595 89.229379,699.03823 94.609233,648.5 101.5904,582.91902 125.92896,543.07352 183,503.79243 c 19.44105,-13.38096 33.19294,-20.70425 92,-48.9927 61.75802,-29.70798 85.49448,-58.70378 78.01889,-95.30574 C 347.69056,333.40547 322.4522,297.34776 270.12795,241.06878 249.16797,218.52462 224.41313,200.07934 156,156.02996 115.55827,129.99062 99.072475,116.33252 91.991042,103 89.012624,97.392406 88.535979,95.538948 88.519316,89.5 88.494602,80.543922 91.734172,73.38213 97,70.751554 c 8.21391,-4.103308 29.06387,-1.515662 55.14978,6.844524 78.38599,25.121662 187.92501,89.596502 259.7222,152.872892 59.14913,52.12938 110.84789,135.32085 141.61657,227.8834 C 586.79273,558.54258 591.85637,655.81536 568.07194,738.5 551.4325,796.34564 519.07637,848.07545 480,879.30618 c -36.29912,29.0111 -77.87859,47.33664 -123,54.21045 -12.37616,1.88539 -46.09323,2.73912 -57.5,1.45592 z m 621,-2.55927 c -53.29781,-5.29733 -92.25824,-19.95731 -131,-49.29249 -8.87908,-6.72322 -28.73588,-26.40462 -36.44271,-36.12079 -35.5244,-44.78643 -51.43702,-97.86968 -48.03105,-160.22776 2.51528,-46.05089 5.58893,-67.30599 13.01092,-89.97412 7.7225,-23.5859 19.86576,-43.3637 38.46284,-62.64464 23.57947,-24.44654 53.45193,-44.70327 96.37661,-65.35368 65.00816,-31.27443 76.69316,-38.18912 94.16347,-55.72198 16.16525,-16.22312 21.76335,-29.0298 20.63864,-47.2146 -1.74193,-28.16426 -21.1289,-58.51508 -76.3275,-119.49279 C 864.22261,216.40155 841.88505,199.30561 767.5,151.58153 740.6417,134.34974 728.2687,125.21518 717.94938,115 705.85214,103.02485 701.9889,96.012699 702.02196,86.090278 c 0.0546,-16.394517 8.67224,-22.55512 28.15507,-20.127667 46.81677,5.833111 136.87206,47.809759 215.04213,100.235629 83.50524,56.00393 127.33504,100.76071 169.71264,173.30176 41.6362,71.27195 68.9418,152.68127 78.6538,234.5 2.1366,17.99986 3.0098,68.17121 1.5055,86.5 -5.8818,71.66327 -29.6564,134.4938 -69.6329,184.02279 -35.6808,44.20689 -96.3804,77.55359 -156.4582,85.95386 -11.19982,1.56599 -40.46982,2.73476 -48.5,1.93663 z"
         id="path221" />
      <path
         style="fill:#2e2e2e"
         d="M 298,934.39209 C 278.42875,932.13224 252.23186,925.83297 235.9541,919.47262 204.10665,907.02858 177.46923,889.45354 153.92417,865.35027 109.13658,819.50086 88.164663,760.20595 91.998748,690.26557 95.114851,633.42246 99.779881,608.25622 112.01469,582.28644 126.56587,551.3999 150.46364,525.81121 187.5,501.46007 208.47023,487.67229 215.67347,483.87047 274.07547,455.76612 332.14942,427.81964 356.71333,401.3776 354.67877,369 352.84731,339.85464 332.39861,308.70775 270.08722,240.15251 252.49956,220.80251 223.10438,198.74271 166,162.0396 128.23163,137.76447 115.34307,128.46197 104.29597,117.50388 92.924316,106.22383 89.002014,98.97016 89.000789,89.217881 88.999946,82.502375 90.823259,76.881486 94.151794,73.338423 109.52963,56.969464 199.9185,89.647471 293,145.2274 c 34.0913,20.35627 77.70338,51.04512 105.5,74.238 14.68883,12.25604 37.85899,34.74898 48.96575,47.5346 18.62332,21.43834 40.72053,53.15115 56.78849,81.5 40.28941,71.08298 65.88301,148.79554 75.41809,229 2.24469,18.88123 2.58408,80.86113 0.53389,97.5 -8.51011,69.06611 -30.72703,125.20547 -67.87042,171.5 -30.02039,37.41662 -79.41593,68.41099 -129.8358,81.46848 -19.49845,5.04961 -29.86353,6.26219 -56,6.55125 -13.75,0.15207 -26.575,0.0946 -28.5,-0.12764 z M 906.62122,930.5287 C 801.82595,917.26986 721.84413,840.73142 707.51012,739.98972 703.21654,709.81378 705.52186,654.27307 712.51374,619.44053 725.3979,555.25346 766.59123,510.98856 851.75,469.82218 c 10.0375,-4.8522 26.4625,-12.80165 36.5,-17.66545 C 943.94276,425.1701 968.04941,400.38524 968.15863,370 968.26614,340.09328 947.76074,307.32502 888.1845,242.19893 863.59954,215.32373 841.99523,198.98686 768.22445,151.48682 739.98407,133.30321 728.04458,124.50535 717.413,114.04533 703.28164,100.14202 699.14774,88.222439 704.21829,76 c 1.89772,-4.574397 3.03902,-5.892792 6.78171,-7.834001 4.11929,-2.136538 5.38833,-2.290374 15,-1.818326 51.47126,2.527857 174.56576,63.854997 261,130.033297 50.113,38.369 79.2676,68.99982 110.5225,116.11903 53.0431,79.9664 87.4087,176.67464 96.6563,272 1.909,19.67784 1.601,68.61879 -0.5475,87 -6.9957,59.85072 -23.8074,107.77091 -53.1503,151.5 -17.841,26.58808 -31.3639,40.96229 -55.7435,59.25272 -12.9921,9.74721 -25.0119,17.00153 -41.2375,24.88816 -22.402,10.88874 -42.8068,17.47682 -68,21.95508 -15.49736,2.75476 -52.36802,3.5217 -68.87878,1.43274 z"
         id="path219" />
      <path
         style="fill:#000000"
         d="m 302.5,933.91524 c -46.56538,-3.74806 -92.76266,-22.10347 -129,-51.25515 -10.31947,-8.30165 -28.35641,-26.87317 -36.36206,-37.43977 C 114.64102,815.52684 100.36579,780.88509 94.396693,741.5 90.282594,714.35449 93.119971,654.51207 100.12736,620.63589 111.98242,563.32441 147.37189,522.49034 219,483.47494 c 6.875,-3.74478 23.93311,-12.13185 37.9069,-18.63794 27.83941,-12.96181 40.63865,-19.7916 55.10003,-29.40184 32.39675,-21.52911 46.50465,-44.24872 43.14736,-69.48525 -3.9806,-29.92182 -24.54574,-60.63643 -84.56491,-126.30005 C 252.30924,219.65059 224.3431,198.69314 165,160.52262 127.81823,136.60666 116.2058,128.19319 104.92925,117 93.271964,105.42889 89.506088,98.710283 89.515106,89.5 89.522862,81.578142 93.034817,74.231941 98,71.751554 c 9.35176,-4.671727 37.0481,0.167307 69,12.055502 39.59007,14.730094 94.18683,42.310154 138.26908,69.847914 39.05263,24.39581 75.4424,51.02232 103.65191,75.84244 43.01162,37.84375 78.7828,85.98253 109.51682,147.38139 C 576.9103,493.69218 596.17016,622.93808 570.38837,725.5 556.50763,780.71864 528.13516,832.70042 494.18408,865.11546 442.53577,914.42705 372.53399,939.55228 302.5,933.91524 Z m 615.55546,-2.97427 C 877.38514,927.84706 837.02526,913.91472 803.20982,891.29596 749.04323,855.06455 714.2416,796.97219 707.05452,730.78941 704.21809,704.66994 707.15888,651.25593 713.15421,620 724.47601,560.97514 760.40038,519.21144 834,479.5113 c 5.775,-3.11508 21.975,-11.03906 36,-17.60886 42.78765,-20.04323 62.04511,-31.86254 78,-47.8727 9.9325,-9.96691 14.52063,-16.65507 18.24614,-26.59758 3.25767,-8.69397 3.21577,-26.84941 -0.0864,-37.43216 -5.84685,-18.73799 -20.31902,-41.86939 -44.06945,-70.43781 -9.7043,-11.67292 -37.09423,-42.36039 -44.73445,-50.12016 C 860.62748,212.45194 830.92106,191.07442 762.80708,147.00976 738.19468,131.08738 726.44687,122.21482 716.77305,112.24245 703.44077,98.498727 699.95802,87.076128 705.48204,75.210561 708.60114,68.510741 711.83563,67 723.0608,67 c 38.92198,0 130.61744,40.72658 213.4392,94.79912 51.77485,33.80268 94.0411,68.5535 121.579,99.96089 63.0193,71.87457 111.0824,175.26094 129.3502,278.23999 8.4066,47.38912 9.8662,100.4688 3.9461,143.5 -7.5208,54.66627 -27.2207,105.82701 -56.411,146.5 -14.5852,20.32255 -27.117,33.40576 -46.4643,48.50884 -48.3767,37.76431 -110.80655,56.96898 -170.44454,52.43213 z"
         id="path217" />
    </g>
  </g>
</svg>
