<?xml version="1.0" encoding="UTF-8" standalone="no"?>
<!-- Created with Inkscape (http://www.inkscape.org/) -->

<svg
   version="1.1"
   id="svg59"
   width="1280"
   height="960"
   viewBox="0 0 1280 960"
   sodipodi:docname="quote1.svg"
   inkscape:version="1.2.2 (732a01da63, 2022-12-09)"
   xmlns:inkscape="http://www.inkscape.org/namespaces/inkscape"
   xmlns:sodipodi="http://sodipodi.sourceforge.net/DTD/sodipodi-0.dtd"
   xmlns="http://www.w3.org/2000/svg"
   xmlns:svg="http://www.w3.org/2000/svg">
  <defs
     id="defs63" />
  <sodipodi:namedview
     id="namedview61"
     pagecolor="#ffffff"
     bordercolor="#666666"
     borderopacity="1.0"
     inkscape:showpageshadow="2"
     inkscape:pageopacity="0.0"
     inkscape:pagecheckerboard="0"
     inkscape:deskcolor="#d1d1d1"
     showgrid="false"
     inkscape:zoom="0.80729167"
     inkscape:cx="626.16774"
     inkscape:cy="480"
     inkscape:window-width="1920"
     inkscape:window-height="991"
     inkscape:window-x="-9"
     inkscape:window-y="-9"
     inkscape:window-maximized="1"
     inkscape:current-layer="g65" />
  <g
     inkscape:groupmode="layer"
     inkscape:label="Image"
     id="g65">
    <g
       id="g177"
       transform="translate(2.2965891,-20.644415)">
      <path
         style="fill:#d0d0d0"
         d="M 937.5,937.31473 C 868.11257,931.25951 800.50226,894.69115 760.97156,841.83587 717.16995,783.2701 694.97393,711.8167 695.01232,629.5 c 0.0596,-127.73251 55.22577,-273.03101 140.154,-369.14203 54.58623,-61.77379 174.75318,-140.2756 272.08328,-177.744666 36.3193,-13.981839 64.1851,-19.05338 75.9922,-13.830521 3.7849,1.674241 5.1531,3.036891 7.4149,7.385136 2.2953,4.412641 2.7796,6.625347 2.8085,12.832081 0.029,6.249022 -0.4363,8.459315 -2.7894,13.25139 -7.6679,15.61518 -24.8422,29.71863 -75.1758,61.73385 -35.963,22.87463 -65.0855,43.38003 -84,59.145 -20.2015,16.83772 -64.95371,68.17511 -82.83015,95.0185 -23.51304,35.30735 -26.9685,61.83178 -11.08374,85.07994 11.97246,17.5223 36.38712,34.80706 74.42529,52.69057 30.7525,14.45819 44.1698,21.11114 56.4886,28.00981 40.7075,22.7966 70.3169,47.60433 88.4078,74.07094 20.479,29.96044 28.665,58.61988 32.562,114 3.4557,49.10959 0.7803,77.37849 -10.5526,111.5 -8.6951,26.17974 -22.5818,50.93161 -40.6751,72.5 -37.9903,45.2869 -95.6911,74.84255 -158.09805,80.98132 -9.63571,0.94783 -33.46809,1.13416 -42.64405,0.33341 z m -610,-2.90171 c -14.58583,-1.44875 -24.5138,-2.88982 -35,-5.08035 C 237.7558,917.89679 182.73457,884.18116 149.78374,841.87972 112.5239,794.04649 90.006034,734.68674 83.454316,667.02753 81.670106,648.6021 81.409763,607.96164 82.957673,589.5 94.568093,451.02465 162.801,305.35178 253.40088,225.61467 303.16396,181.81811 367.33013,139.41942 435,105.62054 482.05573,82.117744 520.05962,68.112539 547,64.346267 c 19.09364,-2.669296 27.83479,0.618829 31.57421,11.877144 4.56564,13.745878 0.53444,24.801589 -14.48209,39.717629 -11.31526,11.23954 -22.97229,19.70687 -59.59212,43.28598 -61.92448,39.87252 -86.99583,58.67622 -106.54268,79.90782 -43.3243,47.05843 -63.62654,73.3552 -74.97531,97.11282 -20.53763,42.99367 -5.78841,72.48194 52.51799,104.99983 5.5,3.06739 21.25,10.8154 35,17.2178 56.42062,26.27107 88.94509,47.41643 115.15042,74.86356 26.46097,27.71487 40.87684,58.41809 46.79791,99.67115 4.76233,33.17995 6.23298,81.66558 3.13932,103.5 -7.64206,53.93609 -29.28475,96.9879 -66.96914,133.21552 -34.82332,33.47715 -80.73399,55.52939 -130.61851,62.73989 -10.99418,1.58914 -42.07829,2.79411 -50.5,1.95761 z"
         id="path191" />
      <path
         style="fill:#afafaf"
         d="m 931,935.93519 c -53.95728,-6.67033 -100.03165,-27.61387 -142.3585,-64.71037 -19.71258,-17.27669 -41.89809,-47.81354 -56.94654,-78.38306 -17.32471,-35.1935 -26.94771,-67.89428 -32.87432,-111.7131 -1.96949,-14.56155 -2.25066,-20.97952 -2.26188,-51.62866 -0.0137,-37.44594 0.84518,-48.91038 6.03087,-80.5 17.82472,-108.58284 69.44664,-218.51867 137.62039,-293.08119 24.58326,-26.88702 66.41341,-60.6695 113.08274,-91.32682 78.97984,-51.88227 164.01624,-91.081388 209.74224,-96.684625 16.8633,-2.066419 24.7721,1.208641 28.3622,11.744868 7.4181,21.770957 -8.2522,40.121957 -65.6092,76.833017 -71.3453,45.66419 -94.882,63.43343 -119.2316,90.01475 -58.05924,63.3806 -79.48133,97.32557 -79.54162,126.0399 -0.0336,15.99833 5.8725,28.41961 20.44765,43.00409 17.06901,17.07992 29.27313,24.27981 93.66097,55.25581 42.4883,20.44046 72.4742,40.70444 95.942,64.83598 30.0024,30.85093 43.955,62.1825 49.3703,110.86422 8.1793,73.52842 2.8021,118.91451 -19.4301,164 -22.2021,45.02461 -57.3238,79.66018 -103.5056,102.07298 -22.497,10.91819 -41.3901,16.98902 -67,21.52884 -13.62908,2.416 -52.08085,3.49228 -65.5,1.83337 z M 323.5,933.31473 C 267.85176,928.45848 215.62895,904.98484 172.10919,865.26603 149.86368,844.96341 125.94148,809.4592 110.95578,774.50502 76.057446,693.10454 72.995289,592.90024 102.14419,486.15942 126.36106,397.47928 172.92484,310.55937 227.72455,251.74043 265.1826,211.53506 330.82335,163.24781 401.31123,124.04502 420.668,113.27949 462.79452,92.749542 480.5,85.453147 c 39.06808,-16.099881 72.2847,-24.062861 85.4396,-20.482332 6.15585,1.675513 10.51619,6.349348 12.59514,13.500684 2.12968,7.325853 1.4547,13.01315 -2.4957,21.028501 -6.3591,12.90255 -22.28329,26.73664 -55.82756,48.5 -64.22205,41.66695 -87.18198,57.74717 -106.81419,74.80842 -8.83189,7.6753 -36.67825,37.99418 -53.99267,58.78675 -42.60043,51.1581 -54.25185,83.09489 -40.46114,110.90483 11.03303,22.24888 34.6543,40.12868 82.55652,62.49002 64.7576,30.22964 97.41126,51.10347 124.16475,79.37223 28.02538,29.61269 41.90607,61.72533 47.28032,109.38191 6.95627,61.68517 4.49102,99.26325 -9.13564,139.25584 C 533.09892,873.13156 442.57491,934.82048 342.5,933.81457 c -8.25,-0.0829 -16.8,-0.30786 -19,-0.49984 z"
         id="path189" />
      <path
         style="fill:#8f8f8f"
         d="M 941,936.32026 C 890.24367,932.5944 840.78054,912.96752 800,880.37172 750.11284,840.49701 713.86992,772.52613 701.53238,695.70311 697.57508,671.06188 696.62289,658.09263 696.63514,629 c 0.0123,-29.32172 1.47634,-48.37149 5.87779,-76.48275 C 718.53196,450.20649 764.79328,346.19118 827.94149,270.5 871.6456,218.11505 956.75795,156.12512 1047,110.95299 c 64.5793,-32.326251 114.2177,-47.761757 134.2724,-41.753226 7.3108,2.190376 12.7594,13.434052 11.2825,23.282628 -2.4575,16.387878 -18.7012,32.278958 -60.8407,59.520008 -81.2725,52.53856 -100.6958,67.10581 -125.0686,93.79994 -56.54577,61.93138 -76.8019,92.81015 -80.1603,122.19766 -1.84931,16.1823 6.79743,35.73034 22.14518,50.06454 12.4639,11.64079 32.24263,24.13985 57.36952,36.25433 9.625,4.64052 25.375,12.2385 35,16.88441 67.5483,32.60501 107.8505,67.27276 127.9747,110.08316 12.1551,25.85784 17.321,52.86163 20.1598,105.38178 2.2642,41.88955 -2.0837,73.15188 -14.7885,106.33178 -24.7131,64.5411 -80.7111,114.57151 -150.4515,134.41821 -26.28284,7.47957 -57.136,10.79289 -82.8945,8.90205 z M 331.5,933.32508 C 279.01277,930.0244 228.80502,910.73814 187.5,878.0105 140.91217,841.09706 105.2648,778.74467 91.079127,709.35647 81.875053,664.33541 80.472308,612.70096 87.093877,562.66103 102.96326,442.73435 161.4017,318.28424 237.44026,242.4844 301.43819,178.6874 423.63733,103.79087 511.85513,74.294021 c 26.37835,-8.819967 48.39272,-11.63528 57.75076,-7.38547 6.05613,2.750296 8.89545,9.007531 8.88995,19.591449 -0.006,10.878042 -2.77751,15.90699 -15.98421,29 -11.43548,11.33704 -20.34539,17.88811 -53.01163,38.97713 -47.92542,30.94019 -65.63875,43.17804 -86,59.41602 -14.41023,11.49206 -20.77778,17.81605 -42.93076,42.63703 -46.95212,52.6068 -65.62222,82.85482 -67.25985,108.96982 -0.71616,11.42055 0.69889,18.27795 5.94179,28.79418 3.32144,6.66216 5.98705,10.10113 14.16993,18.28094 17.0835,17.0771 29.98421,24.65303 95.6724,56.18352 39.18905,18.81083 70.9344,40.2199 93.19583,62.85127 39.52936,40.18624 53.11805,83.71842 53.18774,170.39009 0.0251,31.23472 -0.91979,40.33024 -6.47485,62.32584 C 553.33678,826.35417 510.8222,878.70938 452.5,907.79422 c -29.67507,14.79874 -58.16581,22.58416 -92,25.14006 -13.44907,1.01597 -18.06863,1.07822 -29,0.3908 z"
         id="path187" />
      <path
         style="fill:#6f6f6f"
         d="M 933.5,935.35973 C 913.26826,933.221 887.24641,926.89321 868.43444,919.53759 828.69004,903.99725 788.8972,875.36595 765.85887,845.73357 728.30973,797.43707 707.33147,743.72365 698.78678,674 c -1.75013,-14.28089 -1.72721,-74.49987 0.0345,-90.5 4.93177,-44.7924 13.0995,-82.22291 27.16721,-124.5 18.47385,-55.51868 39.45528,-98.78149 70.56403,-145.5 27.48436,-41.27547 51.38822,-67.59225 90.53212,-99.67066 86.41185,-70.81447 219.25946,-140.034911 279.04986,-145.399299 17.6935,-1.587467 25.867,5.18953 25.8647,21.445686 0,9.342378 -4.2058,16.715073 -16.3238,28.624273 -11.5504,11.35128 -24.1222,20.52469 -56.5435,41.25855 -43.0001,27.49909 -63.3613,41.68009 -85.6319,59.64001 -12.2667,9.89239 -18.9144,16.6252 -41.07533,41.60144 -46.74761,52.68627 -64.50353,81.67878 -66.1426,108 -1.0655,17.11044 4.40247,30.3642 18.69486,45.31429 13.85157,14.48901 30.96639,25.91109 59.52307,39.72454 8.8,4.25673 24.839,12.01509 35.6422,17.24079 43.4307,21.00821 69.8173,38.6703 94.4191,63.20019 39.4686,39.35336 52.3668,78.33836 54.1008,163.52019 0.6145,30.18886 -0.3459,41.82586 -5.2694,63.84828 -18.2335,81.55643 -81.7677,145.31637 -166.5917,167.1835 -18.77565,4.84027 -30.34942,6.19621 -55.30096,6.4789 -13.2,0.14954 -25.8,0.0816 -28,-0.15095 z M 318,931.94566 C 271.58841,926.91702 225.12611,907.42069 187,876.97597 149.2103,846.79988 119.75816,801.87932 101.45351,746.5 66.481633,640.6953 82.464822,503.67135 144.49559,377.5 177.11984,311.14188 213.39578,262.33998 260,222.1123 295.1223,191.79554 340.39778,160.04087 386,133.7402 470.96136,84.739502 550.2807,56.241824 570.11064,67.593333 575.16225,70.48509 578.49982,77.827567 578.47751,86 c -0.047,17.22585 -14.22862,32.18199 -57.01681,60.13085 -70.00544,45.72692 -83.4801,55.09879 -104.9607,73.00204 -13.83145,11.52797 -47.89835,48.83677 -66.81922,73.17792 -26.32082,33.86097 -37.04689,56.26571 -36.95364,77.18919 0.13662,30.65192 24.02649,55.22123 79.77286,82.04162 42.42908,20.41324 60.80564,29.77222 73.38591,37.37462 44.26598,26.75046 71.11386,53.3014 87.55209,86.58376 13.505,27.34346 18.21756,49.85623 21.55727,102.98293 1.89268,30.10803 0.9427,49.33909 -3.59378,72.75121 -18.06624,93.23738 -90.78415,162.09621 -188.90149,178.87668 -13.78741,2.35799 -50.12988,3.39182 -64.5,1.83484 z"
         id="path185" />
      <path
         style="fill:#4e4e4e"
         d="M 939,935.34235 C 918.21326,933.33748 896.03164,928.74718 878.84645,922.89408 832.21294,907.01119 789.33768,876.54313 761.86251,839.76282 705.76183,764.6623 685.78069,666.00615 703.5116,551.65731 720.49255,442.14507 775.97842,324.91163 845.00301,252.70689 907.63941,187.18466 1038.2896,106.29905 1127.8502,77.596078 c 26.0859,-8.360186 46.9359,-10.947832 55.1498,-6.844524 5.2658,2.630576 8.5054,9.792368 8.4807,18.748446 -0.017,6.038948 -0.4933,7.892406 -3.4717,13.5 -7.0815,13.33252 -23.5673,26.99062 -64.009,53.02996 -68.4131,44.04938 -93.168,62.49466 -114.1279,85.03882 -44.11658,47.45091 -68.11407,79.351 -78.18439,103.93122 -17.93614,43.77957 3.82744,76.37485 73.31229,109.79973 58.8071,28.28845 72.559,35.61174 92,48.9927 57.071,39.28109 81.4096,79.12659 88.3908,144.70757 7.7768,73.05567 2.5987,116.05494 -19.3883,161 -7.975,16.30234 -15.4435,28.05248 -26.6954,42 -42.8253,53.08455 -112.7684,85.20315 -183.66305,84.33996 C 948.41482,935.75194 940.925,935.52802 939,935.34235 Z M 327.5,932.37156 C 268.26431,927.4411 213.01524,902.66017 170.66219,862.02493 137.35003,830.06387 109.23481,778.64052 95.47178,724.5 86.535131,689.34534 83.513653,660.30794 84.285899,617 84.827713,586.61476 86.037646,572.64049 90.492756,545.31315 108.90498,432.37385 166.08464,314.94155 237.4716,243.45644 299.20138,181.6418 419.97329,106.93793 506.5,77.048036 c 34.67508,-11.978204 57.77421,-14.735759 65.31793,-7.797601 3.99518,3.674468 6.13574,9.5261 6.16011,16.839843 C 578.0111,96.012699 574.14786,103.02485 562.05062,115 551.7313,125.21518 539.3583,134.34974 512.5,151.58153 c -74.38505,47.72408 -96.72261,64.82002 -123.85122,94.7889 -55.1986,60.97771 -74.58557,91.32853 -76.3275,119.49279 -1.12471,18.1848 4.47339,30.99148 20.63864,47.2146 17.47031,17.53286 29.15531,24.44755 94.16347,55.72198 42.92468,20.65041 72.79714,40.90714 96.37661,65.35368 31.13443,32.27931 44.70812,65.85225 49.46527,122.34652 3.58666,42.59404 3.20066,66.63967 -1.47625,91.96226 -6.91227,37.42567 -21.27775,69.20252 -44.54631,98.53774 -7.70683,9.71617 -27.56363,29.39757 -36.44271,36.12079 -34.04072,25.77556 -71.33351,41.2935 -114,47.43663 -10.18629,1.46663 -39.94034,2.56822 -49,1.81414 z"
         id="path183" />
      <path
         style="fill:#2e2e2e"
         d="M 929,933.93821 C 875.76958,927.41667 824.17345,902.78592 784.59374,865.00214 761.87885,843.31794 738.70723,807.76383 724.11688,772.20756 712.17148,743.09697 704.31627,711.70354 699.79378,675 c -2.05019,-16.63887 -1.7108,-78.61877 0.53389,-97.5 10.96364,-92.22077 43.9388,-183.15213 94.10456,-259.5 32.6569,-49.70092 63.45134,-81.78383 117.43593,-122.34955 85.31176,-64.10594 201.65344,-121.831627 254.55494,-126.303436 17.1361,-1.448535 24.578,4.56858 24.5761,19.870867 0,9.752279 -3.9235,17.005949 -15.2952,28.285999 -11.0471,10.95809 -23.9356,20.26059 -61.704,44.53572 -57.1044,36.70311 -86.4996,58.76291 -104.0872,78.11291 -42.59358,46.86161 -63.03165,73.0564 -74.3934,95.34749 -25.24661,49.53242 -5.11264,83.92528 70.4051,120.26612 58.402,28.10435 65.6053,31.90617 86.5755,45.69395 37.0364,24.35114 60.9341,49.93983 75.4853,80.82637 12.2348,25.96978 16.8998,51.13602 20.016,107.97913 3.834,69.94038 -17.1379,129.23529 -61.9255,175.0847 -34.3243,35.13806 -74.8575,56.45635 -126.0758,66.30912 -11.8791,2.28516 -16.50167,2.63303 -38.5,2.89733 -13.75,0.16519 -28.375,-0.11314 -32.5,-0.61851 z m -612,-3.0537 C 274.05991,925.98348 230.19463,908.46015 195.26245,882.25272 170.88293,863.96229 157.36004,849.58808 139.51901,823 110.17607,779.27091 93.364383,731.35072 86.368731,671.5 84.220242,653.11879 83.912227,604.17784 85.821187,584.5 95.068762,489.17464 129.43442,392.4664 182.47748,312.5 213.73244,265.38079 242.88697,234.74997 293,196.38097 379.43424,130.20267 502.52874,68.87553 554,66.347673 c 9.61167,-0.472048 10.88071,-0.318212 15,1.818326 3.74269,1.941209 4.88399,3.259604 6.78171,7.834001 5.07055,12.222439 0.93665,24.14202 -13.19471,38.04533 -10.63158,10.46002 -22.57107,19.25788 -50.81145,37.44149 -73.77078,47.50004 -95.37509,63.83691 -119.96005,90.71211 -59.57624,65.12609 -80.08164,97.89435 -79.97413,127.80107 0.10922,30.38524 24.21587,55.1701 79.90863,82.15673 10.0375,4.8638 26.4625,12.81325 36.5,17.66545 75.42035,36.45876 116.74557,76.0483 133.73528,128.11835 10.94067,33.53096 16.07204,102.92033 10.5046,142.04919 -14.40322,101.22812 -95.35732,178.25149 -200.24351,190.52069 -13.6835,1.60065 -42.77415,1.79763 -55.24637,0.3741 z"
         id="path181" />
      <path
         style="fill:#000000"
         d="M 936,933.84872 C 880.52123,928.71324 826.56237,904.01842 785.81592,865.11546 761.20699,841.61991 737.42427,804.45151 722.62103,766.35248 691.75763,686.91944 690.29723,590.95868 718.39832,488.88473 743.26225,398.56942 791.35693,310.04941 846.5,253.10893 877.73057,220.8604 921.53755,186.88437 974.73092,153.65497 1018.8132,126.11721 1073.4099,98.53715 1113,83.807056 c 31.9519,-11.888195 59.6482,-16.727229 69,-12.055502 4.9652,2.480387 8.4771,9.826588 8.4849,17.748446 0.01,9.210283 -3.7569,15.92889 -15.4141,27.5 -11.2766,11.19319 -22.889,19.60666 -60.0708,43.52262 -59.3431,38.17052 -87.3092,59.12797 -105.5894,79.12724 -60.01915,65.66362 -80.58429,96.37823 -84.56489,126.30005 -3.35729,25.23653 10.75061,47.95614 43.14736,69.48525 14.46138,9.61024 27.26062,16.44003 55.10003,29.40184 13.9738,6.50609 31.0319,14.89316 37.9069,18.63794 71.6281,39.0154 107.0176,79.84947 118.8726,137.16095 7.0074,33.87618 9.8448,93.7186 5.7307,120.86411 -5.9691,39.38509 -20.2443,74.02684 -42.7412,103.72032 -8.0057,10.5666 -26.0426,29.13812 -36.3621,37.43977 -47.209,37.97797 -109.89666,56.79848 -170.5,51.18863 z M 327.5,931.01419 C 292.6877,928.49181 256.86092,918.05717 227,901.74332 201.21397,887.65569 173.63279,865.82362 158.47261,847.5 121.1533,802.39335 97.265183,746.30506 88.624683,683.5 82.704601,640.4688 84.164234,587.38912 92.570777,540 110.83863,437.02095 158.90166,333.63458 221.92105,261.76001 249.45894,230.35262 291.72515,195.6018 343.5,161.79912 426.32176,107.72658 518.01722,67 556.9392,67 c 11.22517,0 14.45966,1.510741 17.57876,8.210561 5.52402,11.865567 2.04127,23.288166 -11.29101,37.031889 -9.67382,9.97237 -21.42163,18.84493 -46.03403,34.76731 -68.11398,44.06466 -97.8204,65.44218 -114.54876,82.43227 -7.64022,7.75977 -35.03015,38.44724 -44.73447,50.12016 -23.75043,28.56842 -38.2226,51.69982 -44.06945,70.43781 -3.30215,10.58275 -3.34405,28.73819 -0.0864,37.43216 3.72551,9.94251 8.31364,16.63067 18.24614,26.59758 15.95489,16.01016 35.21235,27.82947 78,47.8727 14.025,6.5698 30.225,14.49378 36,17.60886 73.59962,39.70014 109.52399,81.46384 120.84579,140.4887 5.99533,31.25593 8.93612,84.66994 6.09969,110.78941 -7.23967,66.66703 -42.07225,124.44952 -97.176,161.20171 C 433.42611,920.2326 378.43784,934.70497 327.5,931.01419 Z"
         id="path179" />
    </g>
  </g>
</svg>
