<?xml version="1.0" encoding="UTF-8" standalone="no"?>
<!-- Created with Inkscape (http://www.inkscape.org/) -->

<svg
   version="1.1"
   id="svg59"
   width="512"
   height="512"
   viewBox="0 0 512 512"
   sodipodi:docname="victoryIcon.svg"
   inkscape:version="1.2.2 (732a01da63, 2022-12-09)"
   xmlns:inkscape="http://www.inkscape.org/namespaces/inkscape"
   xmlns:sodipodi="http://sodipodi.sourceforge.net/DTD/sodipodi-0.dtd"
   xmlns="http://www.w3.org/2000/svg"
   xmlns:svg="http://www.w3.org/2000/svg">
  <defs
     id="defs63" />
  <sodipodi:namedview
     id="namedview61"
     pagecolor="#ffffff"
     bordercolor="#666666"
     borderopacity="1.0"
     inkscape:showpageshadow="2"
     inkscape:pageopacity="0.0"
     inkscape:pagecheckerboard="0"
     inkscape:deskcolor="#d1d1d1"
     showgrid="false"
     inkscape:zoom="1.5136719"
     inkscape:cx="248.7329"
     inkscape:cy="256"
     inkscape:window-width="1920"
     inkscape:window-height="991"
     inkscape:window-x="-9"
     inkscape:window-y="-9"
     inkscape:window-maximized="1"
     inkscape:current-layer="g65" />
  <g
     inkscape:groupmode="layer"
     inkscape:label="Image"
     id="g65">
    <path
       style="fill:#000000"
       d="m 186.00944,495.73567 -24.07932,-16.01433 -40.69867,15.5641 c -27.734063,10.60613 -41.431453,15.38018 -42.999033,14.98674 -6.05716,-1.52025 -6.84473,0.7228 31.800853,-90.57183 19.89441,-46.99769 36.30874,-85.59603 36.4763,-85.77409 0.16755,-0.17805 1.58396,0.33282 3.14757,1.13527 8.15627,4.18583 12.7391,4.99466 31.84293,5.62 17.59172,0.57585 19.40766,0.812 24.5,3.18617 3.025,1.41032 7.975,4.69655 11,7.30274 3.025,2.60619 7.975,6.19697 11,7.97951 4.49474,2.64861 5.45699,3.68504 5.26466,5.67052 -0.79329,8.18937 -15.37641,137.11729 -15.85804,140.19935 -0.66623,4.26333 -2.65788,6.73018 -5.43371,6.73018 -1.03633,0 -12.71992,-7.20645 -25.96354,-16.01433 z m 110.56206,14.4429 c -0.86429,-0.86428 -1.58899,-1.65178 -1.61044,-1.75 -0.0215,-0.0982 -3.78768,-32.80357 -8.36938,-72.67857 -7.61569,-66.28004 -8.19144,-72.60933 -6.71099,-73.77433 7.21785,-5.67992 21.62156,-15.48332 26.11938,-17.77729 5.28048,-2.69314 6.27828,-2.83268 25,-3.49623 19.65669,-0.69669 25.80856,-1.7833 31.83676,-5.62339 1.28522,-0.81871 2.47191,-1.34011 2.63708,-1.15866 0.16518,0.18144 16.58207,38.78302 36.482,85.78128 38.64711,91.27404 37.86615,89.05126 31.82065,90.56858 -1.55528,0.39035 -15.38253,-4.42367 -43.03588,-14.98311 l -40.74434,-15.55825 -24.19712,16.0107 c -13.30842,8.80588 -24.97543,16.0107 -25.92671,16.0107 -0.95127,0 -2.43673,-0.70714 -3.30101,-1.57143 z M 247.73454,352.72472 c -5.82273,-1.46888 -10.5762,-4.21393 -22.99743,-13.2806 -16.37184,-11.95035 -16.41554,-11.9641 -40.23704,-12.65784 -19.27115,-0.56122 -20.22719,-0.68654 -26.23431,-3.43889 -6.78602,-3.10922 -13.77055,-9.74273 -17.06289,-16.20535 -1.09053,-2.14062 -3.66188,-9.29204 -5.71411,-15.89204 -6.23102,-20.03896 -8.2084,-22.72607 -26.36625,-35.82966 -6.51006,-4.69797 -13.097743,-10.0332 -14.639293,-11.85605 -4.69243,-5.54871 -7.76288,-13.46585 -8.24495,-21.25959 -0.39533,-6.39126 0.0432,-8.53574 4.66272,-22.80341 6.86616,-21.20638 6.86616,-24.2962 0,-45.50258 -4.61956,-14.26767 -5.05805,-16.41215 -4.66272,-22.80341 0.48027,-7.76456 3.55043,-15.70863 8.19186,-21.19649 1.51235,-1.78816 7.546783,-6.70269 13.409843,-10.921172 19.05905,-13.71306 21.1896,-16.50786 27.25582,-35.75354 2.26652,-7.19075 5.01395,-14.82552 6.1054,-16.96614 3.29624,-6.4648 10.27974,-13.09668 17.06457,-16.20536 6.01788,-2.75727 6.92862,-2.87557 26.23431,-3.40769 23.71724,-0.65371 23.90187,-0.71313 40.81267,-13.13564 15.52287,-11.40295 20.0167,-13.35927 30.68733,-13.35927 10.67063,0 15.16446,1.95632 30.68733,13.35927 16.9108,12.42251 17.09543,12.48193 40.81267,13.13564 19.30569,0.53212 20.21643,0.65042 26.23431,3.40769 6.78602,3.10922 13.77055,9.74273 17.06289,16.20536 1.09053,2.14062 3.66188,9.29204 5.71411,15.89204 6.23102,20.03896 8.2084,22.72607 26.36625,35.82966 6.51006,4.697972 13.09774,10.033202 14.63929,11.856052 4.69243,5.54871 7.76288,13.46585 8.24496,21.25959 0.39532,6.39126 -0.0432,8.53574 -4.66273,22.80341 -4.14734,12.80921 -5.09908,17.05574 -5.09908,22.75129 0,5.69555 0.95174,9.94208 5.09908,22.75129 4.61956,14.26767 5.05805,16.41215 4.66273,22.80341 -0.48208,7.79374 -3.55253,15.71088 -8.24496,21.25959 -1.54155,1.82285 -8.12923,7.15808 -14.63929,11.85605 -18.30969,13.21317 -20.08271,15.65632 -26.72762,36.82966 -5.89882,18.796 -11.01427,25.74481 -23.10431,31.38481 -5.20868,2.42985 -6.76083,2.62188 -25.54563,3.16048 -23.85386,0.68394 -23.85568,0.68451 -40.38689,12.77477 -6.38721,4.67135 -13.95741,9.5725 -16.82267,10.89144 -5.88215,2.7077 -16.5507,3.77816 -22.55597,2.26322 z m 31.07294,-55.49767 c 49.97905,-9.48087 89.41374,-49.79399 98.28761,-100.47705 1.8406,-10.5126 1.61512,-31.57272 -0.45192,-42.20981 -6.14528,-31.62391 -23.99543,-59.480392 -49.92818,-77.916642 -23.22991,-16.51473 -55.09219,-25.01824 -82.27941,-21.95901 -35.12885,3.95287 -65.52929,20.91207 -86.06237,48.010782 -13.0512,17.22444 -21.67655,39.00781 -24.38113,61.57468 -4.88648,40.77247 14.21974,84.7062 47.84587,110.01907 18.36411,13.82402 40.1137,22.31332 63.66212,24.8486 6.71688,0.72316 24.99933,-0.3146 33.30741,-1.89062 z m -31.91875,-20.60902 c -44.14515,-3.49282 -80.96951,-36.75636 -89.52484,-80.86803 -1.89686,-9.78032 -1.86849,-29.51992 0.0555,-38.63851 6.57434,-31.15789 26.11563,-56.59459 54.03708,-70.339542 47.81586,-23.5384 104.95873,-6.1296 131.76289,40.142082 5.07027,8.75274 10.00503,22.42918 11.79843,32.69877 1.54671,8.85691 1.34708,27.18465 -0.39362,36.1372 -4.55081,23.40525 -17.08016,44.35548 -35.28588,59.00122 -20.51963,16.5072 -45.37478,24.009 -72.4496,21.86681 z m -12.89347,-48.84037 c 10.8334,-6.58479 20.33641,-12.21767 21.1178,-12.51752 0.7858,-0.30154 10.57444,5.04483 21.90386,11.96349 11.26573,6.87977 21.40565,12.51265 22.53315,12.51752 2.77818,0.012 4.45756,-1.86831 4.41315,-4.94115 -0.0203,-1.4025 -2.46121,-12.675 -5.42432,-25.05 l -5.38746,-22.5 3.17432,-2.63428 c 1.74587,-1.44886 10.14931,-8.65674 18.67431,-16.01752 15.8682,-13.70115 18.16817,-16.80389 14.63177,-19.73884 -0.89707,-0.7445 -10.94165,-1.99234 -25.79006,-3.20391 -13.37639,-1.09145 -24.60024,-2.30418 -24.94188,-2.69495 -0.34164,-0.39078 -4.33926,-9.7105 -8.8836,-20.7105 -10.82917,-26.213022 -10.43726,-25.500002 -14.01623,-25.500002 -3.57897,0 -3.18706,-0.71302 -14.01623,25.500002 -4.54434,11 -8.54196,20.31972 -8.8836,20.7105 -0.34164,0.39077 -11.56549,1.6035 -24.94188,2.69495 -14.84841,1.21157 -24.89299,2.45941 -25.79006,3.20391 -3.5364,2.93495 -1.23643,6.03769 14.63177,19.73884 8.525,7.36078 16.92844,14.56866 18.67431,16.01752 l 3.17432,2.63428 -5.38746,22.5 c -2.96311,12.375 -5.40405,23.6475 -5.42432,25.05 -0.0438,3.03317 1.62602,4.95 4.3122,4.95 1.07199,0 10.81275,-5.38755 21.64614,-11.97234 z"
       id="path177" />
  </g>
</svg>
